<svg
	height='100px'
	width='100px'
	fill="#FFFFFF"
	xmlns="http://www.w3.org/2000/svg"
	xmlns:xlink="http://www.w3.org/1999/xlink"
	version="1.1"
	baseProfile="basic"
	x="0px"
	y="0px"
	viewBox="0 0 90 90"
	xml:space="preserve"
>
	<path d="M45,3c23.159,0,42,18.841,42,42S68.159,87,45,87S3,68.159,3,45S21.841,3,45,3 M45,0C20.147,0,0,20.147,0,45s20.147,45,45,45  s45-20.147,45-45S69.853,0,45,0L45,0z" />
	<path d="M60.162,54.033c-0.828,0-1.5,0.672-1.5,1.5c0,3.133-2.084,5.682-4.646,5.682h-18.03c-2.562,0-4.646-2.549-4.646-5.682  V34.467c0-3.133,2.084-5.682,4.646-5.682h18.03c2.563,0,4.646,2.549,4.646,5.682c0,0.829,0.672,1.5,1.5,1.5s1.5-0.671,1.5-1.5  c0-4.787-3.431-8.682-7.646-8.682H46.5V20c0-0.829-0.671-1.5-1.5-1.5s-1.5,0.671-1.5,1.5v5.785h-7.515  c-4.216,0-7.646,3.895-7.646,8.682v21.066c0,4.787,3.43,8.682,7.646,8.682H43.5V70c0,0.828,0.671,1.5,1.5,1.5s1.5-0.672,1.5-1.5  v-5.785h7.516c4.216,0,7.646-3.895,7.646-8.682C61.662,54.705,60.99,54.033,60.162,54.033z" />
</svg>
