<svg
	height='100px'
	width='100px'
	fill="#FFFFFF"
	xmlns="http://www.w3.org/2000/svg"
	xmlns:xlink="http://www.w3.org/1999/xlink"
	version="1.1"
	x="0px"
	y="0px"
	viewBox="0 0 100 100"
	enable-background="new 0 0 100 100"
	xml:space="preserve"
>
	<path d="M94.955,75.802c0-0.012-0.008-0.021-0.01-0.033c-0.016-0.109-0.047-0.216-0.098-0.315c-0.021-0.04-0.053-0.071-0.08-0.107  c-0.037-0.055-0.068-0.114-0.117-0.162L62.475,44.66l28.023-17.881c0.373-0.239,0.545-0.696,0.422-1.123  c-0.125-0.427-0.516-0.72-0.961-0.72H66.33L78.164,6.691c0.225-0.346,0.213-0.793-0.027-1.127s-0.66-0.493-1.061-0.386  l-31.867,8.152c-0.181,0.046-0.344,0.142-0.473,0.276l-7.151,7.444l-6.809-6.458c-0.187-0.176-0.433-0.274-0.688-0.274H17.221  c-0.001,0-0.002,0.001-0.004,0.001c-0.134,0-0.267,0.029-0.392,0.083c-0.04,0.017-0.07,0.051-0.108,0.073  c-0.072,0.043-0.148,0.08-0.21,0.143L6.06,25.268c-0.338,0.344-0.382,0.88-0.104,1.274c0.192,0.274,0.501,0.426,0.818,0.426  c0.141,0,0.281-0.029,0.415-0.091l9.714-4.438l1.806,18.737c0.003,0.046,0.026,0.089,0.036,0.134  c0.013,0.062,0.023,0.121,0.048,0.179c0.007,0.017,0.006,0.034,0.014,0.051c0.009,0.02,0.02,0.038,0.029,0.057  c0.023,0.04,0.057,0.069,0.084,0.105c0.025,0.033,0.048,0.066,0.077,0.097c0.077,0.078,0.163,0.143,0.259,0.191  c0.01,0.005,0.016,0.014,0.025,0.019l0.994,0.466l25.801,12.098c0.005,0.002,0.011,0.001,0.017,0.004l34.287,16.07l8.107,20.836  c0.15,0.386,0.521,0.638,0.932,0.638c0.014,0,0.027,0,0.041-0.001c0.426-0.018,0.795-0.304,0.918-0.713l4.543-15.211  c0.002-0.008,0-0.015,0.002-0.022C94.955,76.051,94.969,75.926,94.955,75.802z M88.789,72.38L48.574,53.53l12.163-7.761  L88.789,72.38z M46.43,52.525L21.94,41.047l22.249-11.853c0.029-0.015,0.058-0.029,0.086-0.047l4.151-2.211h38.107L46.43,52.525z   M45.981,15.198l29.113-7.447L63.947,24.937H48.176c-0.164,0-0.325,0.04-0.47,0.117l-3.779,2.014l-4.892-4.64L45.981,15.198z   M29.69,16.319l12.376,11.739L20.557,39.517L18.765,20.92c0-0.002-0.001-0.005-0.001-0.008l-0.442-4.593H29.69z M11.267,22.815  l5.165-5.264l0.268,2.782L11.267,22.815z M89.293,88.043l-6.291-16.166l9.754,4.572L89.293,88.043z" />
</svg>
