<svg
	height='100px'
	width='100px'
	fill="#FFFFFF"
	xmlns="http://www.w3.org/2000/svg"
	xmlns:xlink="http://www.w3.org/1999/xlink"
	version="1.1"
	x="0px"
	y="0px"
	viewBox="0 0 68 68"
	enable-background="new 0 0 68 68"
	xml:space="preserve"
>
	<path d="M61.95996,29.45998h-1.18994v-6.5c0-0.35999-0.29004-0.64996-0.6499-0.64996H56.4502    c-0.36011,0-0.65015,0.28998-0.65015,0.64996V25.23h-2.36987v-1.12c0-0.35999-0.29004-0.65002-0.65015-0.65002h-3.66992    c-0.36011,0-0.65015,0.29004-0.65015,0.65002v5.34998h-5.17993v-7.81995l4.98999-4.99005    c0.14014-0.13995,0.21997-0.32996,0.21997-0.52997v-4.54999c1.71021-0.35004,3-1.86005,3-3.67004c0-2.06-1.67993-3.75-3.75-3.75    s-3.75,1.69-3.75,3.75c0,1.81,1.29004,3.32001,3,3.67004v4.23999L42,20.8c-0.13989,0.14001-0.21997,0.33002-0.21997,0.53003    v8.12994h-5.19995v-11.69c1.70996-0.33997,3-1.85998,3-3.66998c0-2.07001-1.67993-3.75-3.75-3.75    c-2.06006,0-3.75,1.67999-3.75,3.75c0,1.81,1.29004,3.32001,3,3.66998v11.69h-5.18994v-8.12994    c0-0.20001-0.08008-0.39001-0.22021-0.53003l-4.98975-4.98999v-4.23999c1.70996-0.34003,3-1.86005,3-3.67004    c0-2.06-1.68018-3.75-3.75-3.75c-2.07007,0-3.75,1.69-3.75,3.75c0,1.81,1.29004,3.33002,3,3.67004v4.54999    c0,0.20001,0.07983,0.39001,0.21997,0.52997l4.98999,4.99005v7.81995h-4.56006c-1.77002-4.15997-5.8999-7.08997-10.69995-7.08997    c-6.40991,0-11.63013,5.21997-11.63013,11.63c0,6.40997,5.22021,11.62,11.63013,11.62c4.80005,0,8.92993-2.91998,10.69995-7.08002    h4.56006V46.36l-4.98999,4.98999c-0.14014,0.14001-0.21997,0.33002-0.21997,0.53003v4.54999c-1.70996,0.33997-3,1.85999-3,3.66998    c0,2.06,1.67993,3.75,3.75,3.75c2.06982,0,3.75-1.69,3.75-3.75c0-1.81-1.29004-3.33002-3-3.66998v-4.23999l4.98975-4.98999    c0.14014-0.14001,0.22021-0.33002,0.22021-0.53003v-8.13h5.18994v11.69c-1.70996,0.35004-3,1.85999-3,3.66998    c0,2.07001,1.68994,3.75,3.75,3.75c2.07007,0,3.75-1.67999,3.75-3.75c0-1.81-1.29004-3.32996-3-3.66998v-11.69h5.19995v8.13    c0,0.20001,0.08008,0.39001,0.21997,0.53003l4.98999,4.98999v4.23999c-1.70996,0.34998-3,1.85999-3,3.66998    c0,2.06,1.67993,3.75,3.75,3.75s3.75-1.69,3.75-3.75c0-1.81-1.28979-3.32001-3-3.66998v-4.54999    c0-0.20001-0.07983-0.39001-0.21997-0.53003L43.28003,46.36v-7.82001h18.67993c2.51025,0,4.54004-2.02997,4.54004-4.53998    C66.5,31.50002,64.45996,29.45998,61.95996,29.45998z M9.39014,37.26003c-1.51001,0-2.72998-1.46002-2.72998-3.26001    S7.88013,30.73,9.39014,30.73c1.5,0,2.72998,1.47003,2.72998,3.27002S10.89014,37.26003,9.39014,37.26003z" />
</svg>
