<svg
	height='100px'
	width='100px'
	fill="#FFFFFF"
	xmlns="http://www.w3.org/2000/svg"
	xmlns:xlink="http://www.w3.org/1999/xlink"
	version="1.1"
	x="0px"
	y="0px"
	viewBox="0 0 90 90"
	enable-background="new 0 0 90 90"
	xml:space="preserve"
>
	<path d="M45,14.732c-16.686,0-31.747,6.92-42.5,18.035l9.855,9.855C20.594,34.021,32.178,28.648,45,28.648  s24.406,5.373,32.645,13.974l9.855-9.855C76.748,21.653,61.686,14.732,45,14.732z" />
	<path d="M45,56.48c-5.149,0-9.769,2.262-12.958,5.83L45,75.268l12.957-12.957C54.77,58.742,50.149,56.48,45,56.48z" />
	<path d="M45,35.606c-10.904,0-20.75,4.591-27.727,11.935l9.852,9.852c4.453-4.825,10.808-7.87,17.875-7.87  c7.068,0,13.422,3.045,17.875,7.87l9.853-9.852C65.749,40.198,55.904,35.606,45,35.606z" />
</svg>
