<?xml version="1.0" standalone="no"?>
<!DOCTYPE svg PUBLIC "-//W3C//DTD SVG 20010904//EN"
 "http://www.w3.org/TR/2001/REC-SVG-20010904/DTD/svg10.dtd">
<svg version="1.0" xmlns="http://www.w3.org/2000/svg"
 width="256.000000pt" height="256.000000pt" viewBox="0 0 256.000000 256.000000"
 preserveAspectRatio="xMidYMid meet">
<metadata>
Created by potrace 1.11, written by Peter Selinger 2001-2013
</metadata>
<g transform="translate(0.000000,256.000000) scale(0.100000,-0.100000)"
fill="#000000" stroke="none">
<path d="M61 2483 c-13 -43 -31 -105 -42 -137 -20 -63 -25 -126 -10 -126 5 0
11 12 14 28 3 15 14 37 25 50 11 12 27 48 36 79 10 32 26 82 36 112 21 61 19
71 -14 71 -20 0 -26 -10 -45 -77z"/>
<path d="M1282 2528 c-6 -18 -22 -73 -36 -122 -30 -103 -32 -138 -10 -161 22
-22 25 -17 73 135 61 190 60 180 18 180 -32 0 -37 -4 -45 -32z m-25 -200 c-3
-8 -6 -5 -6 6 -1 11 2 17 5 13 3 -3 4 -12 1 -19z"/>
<path d="M1400 2513 c-13 -49 -48 -166 -79 -263 -15 -47 -22 -55 -47 -61 -35
-7 -84 -37 -84 -51 0 -6 6 -8 13 -5 12 4 39 -30 142 -183 11 -16 26 -29 33
-30 15 0 16 44 1 71 -5 11 -11 39 -11 62 -1 27 -10 53 -25 73 -24 32 -29 63
-14 79 8 10 19 41 61 185 12 41 28 94 36 118 17 52 17 52 0 52 -8 0 -19 -20
-26 -47z"/>
<path d="M1602 2543 c-5 -10 -19 -52 -31 -93 -12 -41 -35 -118 -51 -170 -64
-210 -70 -234 -69 -274 1 -51 7 -37 43 89 13 50 37 128 51 175 36 113 70 229
79 263 7 30 -8 37 -22 10z"/>
<path d="M1631 2494 c0 -11 3 -14 6 -6 3 7 2 16 -1 19 -3 4 -6 -2 -5 -13z"/>
<path d="M1099 2186 c-14 -7 -39 -16 -55 -20 -26 -7 -144 -117 -144 -135 0 -4
-13 -15 -30 -24 -20 -12 -30 -26 -30 -42 0 -13 -4 -35 -9 -48 -6 -16 -6 -40 2
-68 12 -47 27 -69 50 -69 20 0 43 -28 67 -82 11 -25 27 -51 35 -58 8 -7 15
-21 15 -32 0 -10 14 -45 30 -78 17 -33 30 -63 30 -68 0 -5 -29 -28 -65 -51
-98 -64 -111 -85 -124 -216 -6 -60 -11 -135 -11 -166 0 -32 -8 -74 -17 -95
-10 -22 -17 -48 -18 -58 0 -11 -6 -21 -14 -24 -10 -3 -12 0 -8 12 4 11 1 16
-11 17 -14 0 -14 2 3 9 18 7 18 9 -10 20 -16 7 -64 21 -105 32 -41 10 -91 23
-110 28 -19 6 -71 18 -115 28 -44 10 -87 22 -95 25 -25 11 -133 39 -155 41
-11 0 -26 5 -32 9 -18 12 -16 -3 4 -25 30 -33 6 -29 -37 7 -58 48 -88 49 -32
0 15 -13 21 -25 14 -25 -7 0 -31 18 -53 41 -22 22 -45 39 -52 36 -9 -3 -13
-133 -15 -555 l-2 -552 1280 0 1280 0 0 541 0 540 -61 -48 c-76 -60 -155 -152
-185 -219 -30 -63 -65 -98 -92 -90 -18 6 -20 1 -24 -51 -2 -32 -2 -60 0 -63 2
-3 13 6 24 19 l19 25 -6 -30 c-12 -55 -12 -54 -44 -43 -18 6 -31 20 -35 34 -3
13 -29 47 -57 76 -27 28 -48 53 -45 56 7 7 48 -16 78 -45 16 -15 33 -22 43
-18 23 9 4 39 -50 78 -24 18 -44 36 -45 39 0 4 10 9 22 12 16 5 31 -1 50 -20
32 -30 46 -26 27 9 -7 12 -12 29 -10 37 1 7 -4 20 -13 30 -8 9 -24 26 -36 39
-11 12 -18 27 -14 33 11 18 -37 99 -59 99 -13 0 -17 5 -13 15 3 8 1 15 -5 15
-6 0 -9 6 -6 13 2 6 -7 28 -20 47 -12 19 -23 41 -23 48 0 7 -7 27 -16 44 -9
16 -22 56 -30 87 -8 31 -26 76 -40 101 l-25 45 21 17 c23 19 11 33 -19 23 -11
-3 -23 0 -27 6 -4 8 -3 9 4 5 19 -12 14 12 -7 33 -12 12 -27 17 -41 14 -13 -4
-29 2 -43 15 -15 13 -43 22 -85 27 -35 4 -83 18 -108 31 -25 13 -49 22 -54 19
-15 -9 -44 49 -47 94 -2 44 -25 81 -49 81 -17 0 -54 48 -54 71 0 24 -18 33
-35 19 -12 -10 -15 -9 -15 4 0 9 -3 16 -8 16 -4 0 -13 14 -20 30 -8 17 -21 30
-31 30 -20 0 -46 46 -31 55 18 11 11 54 -10 65 -18 10 -19 8 -13 -21 5 -29 4
-30 -14 -21 -11 6 -25 18 -33 26 -22 27 -27 18 -22 -36 5 -53 5 -53 -16 -35
-28 26 -55 85 -47 105 5 14 8 14 15 2 7 -12 11 -12 26 1 9 8 19 13 21 12 11
-9 23 0 23 16 0 30 -22 42 -51 27z m281 -407 c0 -6 -4 -7 -10 -4 -5 3 -10 11
-10 16 0 6 5 7 10 4 6 -3 10 -11 10 -16z m-55 -76 c22 -25 27 -26 46 -15 20
13 21 12 14 -17 -6 -27 -4 -29 17 -24 13 3 28 12 35 20 9 12 15 10 37 -12 22
-22 25 -31 19 -70 -3 -25 -11 -53 -18 -62 -12 -16 -14 -16 -26 10 -16 35 -21
34 -43 -7 -10 -19 -37 -51 -59 -72 -23 -22 -35 -30 -26 -19 15 19 39 70 39 82
0 3 -6 0 -14 -6 -11 -9 -15 0 -21 55 -4 37 -13 88 -21 113 -19 64 -18 65 21
24z m-910 -730 c3 -10 -1 -13 -12 -11 -9 2 -18 8 -20 14 -5 16 25 13 32 -3z
m55 7 c0 -5 -7 -10 -16 -10 -8 0 -12 5 -9 10 3 6 10 10 16 10 5 0 9 -4 9 -10z
m-399 -17 c13 -17 13 -17 -6 -3 -11 8 -22 16 -24 17 -2 2 0 3 6 3 6 0 17 -8
24 -17z m85 -27 c31 -31 33 -36 18 -50 -8 -9 -20 -16 -27 -16 -6 0 -2 7 9 15
18 14 18 16 -13 45 -18 16 -33 32 -33 35 0 12 14 3 46 -29z m348 19 c-4 -8 -7
-15 -9 -15 -2 0 -5 7 -9 15 -3 9 0 15 9 15 9 0 12 -6 9 -15z m-459 -5 c3 -5 2
-10 -4 -10 -5 0 -13 5 -16 10 -3 6 -2 10 4 10 5 0 13 -4 16 -10z m500 1 c3 -5
1 -12 -4 -15 -5 -3 -11 1 -15 9 -6 16 9 21 19 6z m55 -1 c0 -5 3 -9 8 -9 22 4
34 -3 28 -16 -4 -11 2 -15 22 -15 24 -1 25 -2 9 -11 -25 -15 -87 15 -87 41 0
11 5 20 10 20 6 0 10 -4 10 -10z m-485 -30 c10 -11 14 -20 9 -20 -5 0 -15 9
-22 20 -7 11 -11 20 -9 20 2 0 12 -9 22 -20z m115 12 c0 -5 11 -15 25 -22 14
-7 25 -19 25 -27 0 -19 -6 -17 -40 17 -32 31 -36 40 -20 40 6 0 10 -4 10 -8z
m70 -13 c0 -5 6 -9 14 -9 21 0 55 -47 49 -68 -6 -24 23 -50 39 -34 9 9 8 16
-3 29 -40 51 -48 94 -11 60 13 -12 21 -14 29 -6 8 8 13 8 17 0 4 -6 14 -11 22
-11 9 0 23 -7 32 -16 11 -11 17 -13 20 -5 2 6 7 9 12 6 10 -6 -52 -171 -71
-189 -12 -11 -41 -4 -178 41 -91 29 -166 55 -168 57 -12 12 100 -4 120 -17 21
-13 29 -14 51 -4 14 7 26 15 26 20 0 17 42 6 47 -13 3 -11 14 -20 24 -20 12 0
16 5 13 15 -4 11 1 15 17 15 13 0 32 7 43 15 17 13 17 17 4 52 -16 39 -38 56
-38 29 0 -9 7 -19 15 -22 8 -4 15 -12 15 -19 0 -13 -42 -45 -60 -45 -20 0 -48
35 -55 69 -4 19 -21 47 -38 62 -26 24 -27 27 -9 22 12 -3 22 -9 22 -14z m465
-19 c8 -13 -5 -13 -25 0 -13 8 -13 10 2 10 9 0 20 -4 23 -10z m-35 -19 c0 -4
-11 -6 -25 -3 -14 2 -25 6 -25 8 0 2 11 4 25 4 14 0 25 -4 25 -9z m-518 -23
c-7 -7 -12 -8 -12 -2 0 14 12 26 19 19 2 -3 -1 -11 -7 -17z m578 6 c0 -2 -9
-4 -21 -4 -11 0 -18 4 -14 10 5 8 35 3 35 -6z m-543 -26 c-2 -8 -20 -22 -39
-32 -35 -19 -35 -19 -57 3 -11 11 -19 21 -17 21 2 0 12 3 20 6 12 5 15 2 10
-10 -10 -25 31 -20 58 8 24 24 34 26 25 4z m392 -30 c17 -17 31 -38 31 -45 0
-7 9 -17 20 -23 11 -6 20 -17 20 -25 0 -8 5 -15 11 -15 23 0 -2 46 -59 108
-17 18 -7 29 12 13 8 -6 18 -11 22 -10 15 4 104 -23 109 -32 3 -4 13 -5 22 -2
13 5 15 2 9 -12 -4 -11 -11 -61 -16 -113 -5 -52 -11 -96 -14 -99 -4 -5 -84 18
-246 70 -24 8 -30 12 -17 15 10 2 32 -1 49 -7 47 -16 67 -15 42 4 -14 11 -16
17 -7 23 8 5 9 13 3 22 -6 8 -10 23 -10 34 0 16 3 15 21 -8 12 -16 19 -35 16
-46 -6 -24 24 -28 43 -5 8 9 8 15 2 15 -6 0 -13 -6 -15 -12 -3 -8 -6 -5 -6 5
-2 31 -43 121 -69 150 -36 38 -11 34 27 -5z m-33 -26 c-6 -5 -36 23 -36 34 0
4 9 -1 20 -11 11 -10 18 -20 16 -23z m-319 2 c-3 -3 -12 -4 -19 -1 -8 3 -5 6
6 6 11 1 17 -2 13 -5z m1726 -147 c32 -35 35 -25 7 21 -13 22 -16 32 -8 30 20
-7 58 -79 58 -111 0 -16 -4 -26 -10 -22 -6 3 -7 -1 -4 -9 13 -34 -15 -13 -36
26 -12 23 -35 58 -51 77 -56 69 -24 59 44 -12z m-870 11 c6 -22 -8 -58 -22
-58 -5 0 -9 18 -9 40 -1 44 21 57 31 18z m-623 2 c0 -5 -7 -10 -16 -10 -8 0
-12 5 -9 10 3 6 10 10 16 10 5 0 9 -4 9 -10z m1264 -49 c21 -8 30 -61 11 -61
-6 0 -17 -9 -25 -21 -17 -24 -78 -64 -100 -65 -8 -1 -25 -4 -38 -8 -16 -5 -22
-4 -20 5 2 7 -4 14 -12 14 -22 2 -31 -5 -23 -18 13 -21 11 -48 -4 -43 -8 3
-11 1 -8 -4 3 -5 1 -27 -4 -47 -9 -31 -22 -46 -73 -79 -126 -81 -178 -100
-178 -62 0 15 70 65 130 95 31 15 43 36 48 82 3 34 0 52 -11 63 -14 14 -12 18
26 43 41 27 233 114 252 114 6 0 19 -4 29 -8z m-767 -113 c-3 -7 -5 -2 -5 12
0 14 2 19 5 13 2 -7 2 -19 0 -25z m-296 8 c-8 -10 -9 -16 -1 -21 15 -10 12
-25 -7 -32 -34 -12 -44 -25 -32 -39 8 -10 8 -14 0 -14 -6 0 -11 3 -11 8 0 4
-10 13 -21 21 -19 11 -21 11 -15 -3 21 -53 21 -52 0 -36 -24 20 -95 52 -101
46 -2 -2 16 -23 41 -46 25 -24 46 -51 46 -61 0 -9 8 -20 18 -22 9 -3 -70 -5
-175 -6 -117 -1 -193 3 -193 9 0 24 26 62 60 84 43 28 79 39 214 66 54 11 115
28 135 39 43 24 58 26 42 7z m259 4 c0 -5 -2 -10 -4 -10 -3 0 -8 5 -11 10 -3
6 -1 10 4 10 6 0 11 -4 11 -10z m-38 -65 c3 -13 1 -22 -3 -19 -9 5 -13 44 -5
44 2 0 6 -11 8 -25z m114 -72 c-2 -3 -12 7 -21 21 -10 14 -20 24 -24 21 -4 -2
-5 10 -3 27 l5 32 24 -48 c13 -26 22 -50 19 -53z m833 67 c25 -19 71 -18 71 1
0 5 7 9 15 9 8 0 15 -8 15 -18 0 -9 11 -38 25 -64 22 -41 23 -47 8 -52 -10 -4
-26 3 -42 16 l-25 23 17 -27 c21 -34 17 -94 -7 -90 -11 2 -14 -2 -10 -13 10
-25 -11 -17 -52 19 -22 19 -57 40 -79 45 -22 6 -51 19 -64 30 -22 17 -28 17
-69 5 -25 -8 -51 -19 -58 -25 -11 -9 -14 -8 -14 4 0 25 71 74 134 92 55 16 68
16 126 -1 l25 -7 -24 26 c-34 38 -54 41 -107 18 -65 -29 -68 -26 -9 9 54 33
78 33 124 0z m-429 10 c0 -5 -4 -10 -10 -10 -5 0 -10 5 -10 10 0 6 5 10 10 10
6 0 10 -4 10 -10z m-585 -37 c0 -54 22 -100 54 -112 19 -7 -11 -9 -109 -9 -74
0 -125 3 -112 5 14 3 37 24 55 51 41 60 82 102 99 102 9 0 13 -13 13 -37z
m546 -4 c13 -11 17 -18 9 -15 -8 3 -23 9 -32 12 -10 4 -18 10 -18 15 0 15 16
10 41 -12z m49 -37 c0 -5 -18 -18 -40 -31 -21 -12 -63 -38 -91 -57 -33 -22
-56 -31 -62 -25 -5 5 -6 14 -3 20 9 13 117 65 131 63 6 -1 17 7 25 18 14 20
40 27 40 12z m-119 -16 c-11 -13 -71 -40 -71 -31 0 5 64 45 74 45 5 0 3 -6 -3
-14z m-149 -65 c9 -3 60 -46 113 -96 54 -49 101 -91 105 -93 4 -1 31 35 61 82
50 77 84 114 96 103 8 -9 -96 -206 -114 -215 -10 -5 -24 -7 -32 -4 -7 2 -67
51 -132 107 -116 100 -142 114 -208 116 -23 0 -24 1 -6 8 20 8 85 4 117 -8z
m-313 -133 l36 -23 -39 -3 c-61 -5 -126 29 -78 41 33 9 45 7 81 -15z"/>
<path d="M480 820 c0 -5 5 -10 11 -10 5 0 7 5 4 10 -3 6 -8 10 -11 10 -2 0 -4
-4 -4 -10z"/>
<path d="M755 728 c3 -22 10 -47 17 -55 9 -12 14 -8 25 18 7 17 13 39 12 48
-1 9 -4 7 -7 -7 -9 -31 -27 -24 -26 11 1 17 -3 27 -12 27 -11 0 -13 -10 -9
-42z"/>
<path d="M345 330 c-8 -13 5 -13 25 0 13 8 13 10 -2 10 -9 0 -20 -4 -23 -10z"/>
<path d="M298 313 c7 -3 16 -2 19 1 4 3 -2 6 -13 5 -11 0 -14 -3 -6 -6z"/>
<path d="M121 2055 c0 -5 15 -28 34 -50 19 -22 35 -35 35 -30 0 6 -16 28 -35
50 -19 22 -34 36 -34 30z"/>
<path d="M876 1443 c-32 -37 -35 -37 -66 17 -5 8 -11 12 -15 9 -4 -5 22 -67
42 -98 6 -10 33 24 33 41 0 15 5 19 19 15 12 -3 27 4 40 19 26 30 26 34 -1 33
-13 0 -35 -15 -52 -36z"/>
<path d="M491 1454 c0 -11 3 -14 6 -6 3 7 2 16 -1 19 -3 4 -6 -2 -5 -13z"/>
<path d="M621 1463 c-1 -19 32 -93 42 -93 4 0 1 -10 -7 -22 -23 -32 -20 -49
11 -76 l28 -23 -44 -40 c-25 -21 -41 -42 -36 -46 4 -5 10 -2 12 5 3 7 16 18
30 23 14 5 27 18 30 28 3 13 11 17 24 14 11 -3 19 0 19 7 0 6 -8 14 -18 17
-10 2 -23 22 -30 45 -15 46 -10 61 9 27 13 -25 79 -96 79 -86 0 12 -40 83 -58
103 -31 34 -79 99 -85 114 -3 9 -6 10 -6 3z"/>
<path d="M670 1458 c0 -18 51 -88 64 -88 6 0 18 -19 26 -42 14 -40 43 -69 55
-56 7 7 -28 60 -84 127 -23 27 -41 54 -41 60 0 6 -4 11 -10 11 -5 0 -10 -5
-10 -12z"/>
<path d="M730 1458 c1 -17 39 -62 46 -55 6 6 -33 67 -42 67 -2 0 -4 -6 -4 -12z"/>
<path d="M460 1413 c1 -22 23 -53 38 -53 7 0 2 15 -9 35 -24 39 -29 43 -29 18z"/>
<path d="M330 1410 c0 -5 5 -10 11 -10 5 0 7 5 4 10 -3 6 -8 10 -11 10 -2 0
-4 -4 -4 -10z"/>
<path d="M540 1410 c0 -5 9 -14 19 -20 11 -5 22 -19 26 -29 6 -20 33 -36 43
-26 6 6 -68 84 -80 85 -5 0 -8 -4 -8 -10z"/>
<path d="M420 1389 c0 -8 16 -33 35 -55 37 -41 41 -49 26 -58 -9 -6 -71 67
-71 83 0 6 -7 11 -15 11 -11 0 -10 -8 8 -36 12 -19 27 -44 33 -54 15 -28 62
-62 68 -51 3 5 -1 11 -9 15 -9 3 -12 12 -8 22 5 13 10 11 28 -12 13 -16 20
-35 17 -43 -3 -9 0 -12 9 -9 8 3 13 15 12 27 -4 29 11 27 27 -4 21 -39 32 -29
13 13 -23 49 -23 49 -34 29 -12 -20 -29 -23 -29 -4 0 8 -13 29 -29 48 -17 19
-41 48 -55 64 -17 20 -25 25 -26 14z"/>
<path d="M526 1363 c1 -47 13 -64 35 -52 25 13 25 32 0 24 -17 -5 -20 -2 -18
21 1 15 -2 28 -8 30 -5 2 -10 -8 -9 -23z"/>
<path d="M790 1375 c0 -8 5 -15 10 -15 6 0 10 -4 10 -9 0 -16 42 -82 48 -76 6
6 -29 78 -40 83 -5 2 -8 10 -8 18 0 8 -4 14 -10 14 -5 0 -10 -7 -10 -15z"/>
<path d="M353 1319 c-2 -29 1 -39 10 -36 6 2 11 17 10 32 -3 45 -18 48 -20 4z"/>
<path d="M318 1344 c-5 -4 -8 -26 -8 -48 1 -33 3 -38 11 -23 11 19 8 83 -3 71z"/>
<path d="M850 1336 c0 -8 5 -18 10 -21 6 -3 10 3 10 14 0 12 -4 21 -10 21 -5
0 -10 -6 -10 -14z"/>
<path d="M2010 1316 c0 -9 5 -16 10 -16 6 0 10 4 10 9 0 6 -4 13 -10 16 -5 3
-10 -1 -10 -9z"/>
<path d="M602 1308 c-13 -16 -6 -52 8 -43 4 3 10 -2 14 -10 6 -16 36 -21 36
-6 0 6 -8 16 -19 23 -10 7 -20 22 -22 32 -4 17 -5 17 -17 4z"/>
<path d="M270 1274 c0 -17 18 -36 30 -32 7 2 4 10 -9 22 -12 11 -21 15 -21 10z"/>
<path d="M396 1249 c13 -26 14 -33 2 -40 -7 -5 -8 -9 -3 -9 6 1 19 7 29 15 18
13 18 16 2 40 -9 14 -23 25 -31 25 -14 0 -13 -4 1 -31z"/>
<path d="M2 1225 c0 -32 4 -45 16 -48 15 -4 15 -5 0 -6 -10 0 -18 -6 -18 -12
0 -6 12 -10 28 -9 43 3 52 1 52 -14 0 -7 9 -16 19 -19 14 -3 18 -1 14 9 -7 20
3 17 37 -7 23 -18 37 -20 70 -15 27 4 39 3 35 -4 -3 -5 1 -10 9 -10 9 0 16 -4
16 -10 0 -5 10 -10 23 -10 17 0 19 2 7 10 -8 5 -11 12 -7 16 4 4 18 -3 32 -16
14 -13 27 -21 30 -18 8 7 -5 38 -16 38 -5 0 -9 5 -9 12 0 6 8 4 19 -6 15 -14
24 -15 40 -7 13 7 22 8 26 1 3 -5 -1 -10 -9 -10 -8 0 -18 -5 -22 -12 -5 -8 2
-9 25 -5 22 5 40 2 56 -9 15 -10 32 -13 46 -9 14 5 19 4 15 -4 -4 -7 1 -11 13
-11 31 0 34 -18 4 -22 -24 -3 -20 -6 27 -20 72 -21 132 -30 125 -17 -4 5 3 9
14 9 29 0 35 18 9 24 -13 3 -2 3 25 2 26 -2 47 -1 47 3 0 10 -43 36 -61 36 -9
1 -33 6 -55 12 -52 15 -183 45 -214 49 -43 5 -114 25 -126 35 -6 5 -19 6 -28
3 -10 -4 -27 -2 -39 3 -41 19 -97 34 -139 38 -50 5 -77 25 -32 25 16 0 47 -5
69 -11 22 -5 72 -14 110 -20 140 -18 173 -25 199 -42 14 -10 26 -14 26 -10 0
18 -66 51 -91 46 -15 -3 -30 0 -33 6 -4 6 -18 11 -32 11 -13 0 -24 4 -24 8 0
4 -8 8 -17 9 -16 1 -212 34 -285 47 -25 5 -26 3 -26 -39z m183 -65 c4 -6 -5
-10 -20 -10 -15 0 -24 4 -20 10 3 6 12 10 20 10 8 0 17 -4 20 -10z m35 -30
c-13 -24 -33 -26 -51 -4 -12 15 -11 16 9 10 13 -5 22 -3 22 3 0 6 7 11 15 11
13 0 14 -4 5 -20z m64 -5 c25 -19 9 -19 -24 0 -14 8 -19 14 -10 14 8 0 24 -6
34 -14z m216 -40 c7 -9 8 -15 2 -15 -5 0 -12 7 -16 15 -3 8 -4 15 -2 15 2 0 9
-7 16 -15z"/>
<path d="M344 1244 c3 -9 6 -18 6 -20 0 -2 7 -4 15 -4 13 0 14 4 5 20 -13 24
-35 27 -26 4z"/>
<path d="M457 1224 c-8 -8 32 -45 91 -84 35 -23 49 -27 72 -20 16 4 30 6 32 4
3 -2 21 -6 41 -8 20 -3 44 -9 54 -15 23 -12 88 -22 77 -12 -15 14 -117 45
-141 43 -13 -1 -23 2 -23 7 0 4 -19 7 -42 5 -45 -3 -82 14 -106 48 -7 10 -19
18 -27 18 -7 0 -15 5 -17 11 -2 5 -7 7 -11 3z"/>
<path d="M758 1188 c12 -12 24 -19 27 -16 8 7 -23 38 -38 38 -6 0 -2 -10 11
-22z"/>
<path d="M826 1183 c10 -40 14 -41 14 -5 0 18 -5 32 -10 32 -6 0 -8 -11 -4
-27z"/>
<path d="M2070 1201 c0 -5 7 -15 17 -22 15 -13 15 -12 4 9 -12 23 -21 28 -21
13z"/>
<path d="M552 1191 c2 -7 7 -12 11 -12 12 1 9 15 -3 20 -7 2 -11 -2 -8 -8z"/>
<path d="M717 1170 c17 -30 33 -39 33 -20 0 6 -4 10 -10 10 -5 0 -10 9 -10 20
0 11 -7 20 -16 20 -13 0 -13 -4 3 -30z"/>
<path d="M2235 1150 c3 -5 8 -10 11 -10 2 0 4 5 4 10 0 6 -5 10 -11 10 -5 0
-7 -4 -4 -10z"/>
<path d="M2515 1140 c-3 -5 -1 -10 4 -10 6 0 11 5 11 10 0 6 -2 10 -4 10 -3 0
-8 -4 -11 -10z"/>
<path d="M2115 1100 c3 -5 8 -10 11 -10 2 0 4 5 4 10 0 6 -5 10 -11 10 -5 0
-7 -4 -4 -10z"/>
<path d="M2390 1099 c0 -5 5 -7 10 -4 6 3 10 8 10 11 0 2 -4 4 -10 4 -5 0 -10
-5 -10 -11z"/>
<path d="M2197 1074 c9 -15 19 -22 21 -15 2 6 -3 18 -11 26 -24 24 -29 18 -10
-11z"/>
<path d="M2310 1076 c0 -9 5 -16 10 -16 6 0 10 4 10 9 0 6 -4 13 -10 16 -5 3
-10 -1 -10 -9z"/>
<path d="M2385 1050 c-3 -5 -2 -10 4 -10 5 0 13 5 16 10 3 6 2 10 -4 10 -5 0
-13 -4 -16 -10z"/>
<path d="M2140 1039 c0 -32 13 -79 22 -79 10 0 2 55 -13 80 -7 13 -8 13 -9 -1z"/>
<path d="M738 963 c7 -3 16 -2 19 1 4 3 -2 6 -13 5 -11 0 -14 -3 -6 -6z"/>
</g>
</svg>
