<svg
	height='100px'
	width='100px'
	fill="#FFFFFF"
	xmlns="http://www.w3.org/2000/svg"
	xmlns:xlink="http://www.w3.org/1999/xlink"
	version="1.1"
	x="0px"
	y="0px"
	viewBox="0 0 283.465 283.465"
	enable-background="new 0 0 283.465 283.465"
	xml:space="preserve"
>
	<path d="M71.721,58.162c-1.57,0-2.845-1.275-2.845-2.848c0-1.567,1.274-2.845,2.845-2.845c1.57,0,2.849,1.278,2.849,2.845  C74.57,56.887,73.291,58.162,71.721,58.162 M104.09,52.469c1.57,0,2.847,1.279,2.847,2.848c0,1.572-1.277,2.846-2.847,2.846  c-1.567,0-2.847-1.276-2.847-2.846C101.246,53.747,102.523,52.469,104.09,52.469 M120.275,106.718c-1.567,0-2.847-1.279-2.847-2.844  c0-1.57,1.279-2.85,2.847-2.85c1.57,0,2.852,1.279,2.852,2.85C123.125,105.438,121.846,106.718,120.275,106.718 M131.067,74.345  c-1.57,0-2.85-1.276-2.85-2.846c0-1.568,1.279-2.848,2.85-2.848c1.567,0,2.848,1.279,2.848,2.848  C133.915,73.069,132.634,74.345,131.067,74.345 M158.041,74.05c1.57,0,2.844,1.279,2.844,2.848c0,1.567-1.273,2.846-2.844,2.846  s-2.844-1.279-2.844-2.846C155.197,75.329,156.471,74.05,158.041,74.05 M163.434,122.903c-1.566,0-2.844-1.278-2.844-2.848  c0-1.57,1.277-2.846,2.844-2.846c1.57,0,2.848,1.276,2.848,2.846C166.281,121.625,165.004,122.903,163.434,122.903 M201.197,122.604  c1.572,0,2.852,1.278,2.852,2.848c0,1.567-1.279,2.85-2.852,2.85c-1.564,0-2.844-1.28-2.844-2.85S199.633,122.604,201.197,122.604   M201.197,149.582c1.572,0,2.852,1.274,2.852,2.844c0,1.57-1.279,2.847-2.852,2.847c-1.564,0-2.844-1.276-2.844-2.847  C198.354,150.856,199.633,149.582,201.197,149.582 M260.77,242.319c-8.588-7.027-17.477-13.652-26.203-20.479  c-15.881-12.424-31.484-25.191-47.002-38.065v-14.11l10.047-10.043l-0.252-0.248c1.141,0.629,2.449,0.992,3.84,0.992  c4.383,0,7.947-3.559,7.947-7.942c0-4.38-3.564-7.942-7.947-7.942c-4.375,0-7.938,3.562-7.938,7.942  c0,1.394,0.363,2.703,0.996,3.842l-0.252-0.248l-6.441,6.438v-19.762l10.047-10.041l-0.252-0.255  c1.141,0.633,2.449,0.999,3.84,0.999c4.383,0,7.947-3.567,7.947-7.948c0-4.38-3.564-7.939-7.947-7.939  c-4.375,0-7.938,3.561-7.938,7.939c0,1.398,0.363,2.706,0.996,3.843l-0.252-0.25l-8.982,8.987l-14.383-14.38l-0.252,0.251  c0.629-1.141,0.996-2.446,0.996-3.843c0-4.38-3.566-7.944-7.945-7.944c-4.381,0-7.945,3.564-7.945,7.944  c0,4.378,3.564,7.942,7.945,7.942c1.393,0,2.703-0.364,3.842-0.997l-0.246,0.251l15.436,15.438v36.852  c-0.129-0.11-0.258-0.217-0.391-0.324l-59.383,1.219c0,0-10.306,0.912-10.084-2.874c0.22-3.777,15.784-3.629,15.784-3.629  l45.044-1.914c-1.445-1.206-2.889-2.411-4.334-3.615c-4.15-3.471-8.357-6.878-12.549-10.297c-0.105-0.099-0.203-0.188-0.312-0.282  c-4.627-4.148-10.602-9.719-17.419-16.188h0.187V99.534l15.439-15.438l-0.248-0.248c1.139,0.63,2.447,0.992,3.842,0.992  c4.379,0,7.943-3.561,7.943-7.941c0-4.379-3.564-7.941-7.943-7.941c-4.381,0-7.943,3.562-7.943,7.941  c0,1.394,0.365,2.702,0.992,3.843l-0.25-0.251l-3.592,3.593l-8.986-8.989l-0.248,0.25c0.633-1.139,0.995-2.448,0.995-3.842  c0-4.381-3.564-7.942-7.942-7.942c-4.38,0-7.939,3.561-7.939,7.942c0,4.38,3.559,7.944,7.939,7.944c1.393,0,2.702-0.366,3.842-0.997  l-0.253,0.251l8.989,8.987l-9.733,9.736v16.482l-6.441-6.44l-0.25,0.25c0.633-1.138,0.995-2.448,0.995-3.838  c0-4.383-3.559-7.948-7.942-7.948c-4.377,0-7.939,3.564-7.939,7.948c0,4.374,3.559,7.939,7.939,7.939  c1.396,0,2.702-0.364,3.844-0.997l-0.25,0.253l10.043,10.044v17.615l-45.985,0.947c0,0-10.306,0.916-10.084-2.871  c0.225-3.783,15.784-3.633,15.784-3.633l34.796-1.475c-10.166-9.775-21.433-20.756-32.572-31.692V75.853l-4.337-4.341l8.989-8.987  l-0.25-0.251c1.14,0.636,2.445,0.999,3.841,0.999c4.383,0,7.939-3.567,7.939-7.947s-3.557-7.938-7.939-7.938  c-4.38,0-7.945,3.558-7.945,7.938c0,1.398,0.367,2.704,0.998,3.847l-0.251-0.253l-8.986,8.988l-8.987-8.988l-0.251,0.253  c0.631-1.143,0.998-2.448,0.998-3.847c0-4.38-3.565-7.938-7.945-7.938c-4.38,0-7.939,3.558-7.939,7.938s3.559,7.947,7.939,7.947  c1.398,0,2.702-0.362,3.841-0.999l-0.248,0.248l15.436,15.441v17.045c-0.113-0.114-0.229-0.227-0.343-0.341L70.57,94.599  c0,0-10.306,0.916-10.09-2.866c0.227-3.786,15.79-3.638,15.79-3.638l7.277-0.188C56.918,61.644,33.779,38.454,32.164,36.744  c-5.098-5.394-7.196-7.792-10.341-5.996c-3.841,2.196,0.548,12.588,0.548,12.588l0.143,0.157  c5.966,20.652,11.984,41.283,17.942,61.937c5.948,20.637,13.678,40.478,25.531,58.539c16.391,24.98,37.844,43.922,65.761,55.12  c14.957,6.006,30.58,9.235,46.619,10.124c11.879,0.659,23.803,0.681,35.184-3.73c1.789-0.691,3.045,0.104,4.389,1.067  c10.945,7.877,21.902,15.736,32.865,23.59c6.646,4.765,6.561,4.696,10.891-2.339C263.148,245.433,262.926,244.087,260.77,242.319" />
</svg>
