<svg
	version="1.0"
	xmlns="http://www.w3.org/2000/svg"
	width="600pt"
	height="600pt"
	viewBox="0 0 600 600"
	preserveAspectRatio="xMidYMid meet"
>
	<g
		transform="translate(0, 600) scale(0.1, -0.1)"
		fill="#FFFFFF"
		stroke="none"
	>
		<path d="M2727 5949 c-794 -67 -1548 -480 -2050 -1125 -93 -119 -211 -306 -290 -461 -132 -260 -207 -477 -268 -779 -32 -156 -32 -165 -37 -495 -4 -356 1 -426 50 -664 86 -422 276 -835 545 -1187 96 -125 305 -343 433 -450 393 -330 872 -552 1372 -637 187 -32 303 -42 508 -42 675 -1 1318 224 1840 645 41 33 143 128 226 210 251 251 386 437 545 751 128 253 201 465 258 745 86 425 70 913 -46 1340 -176 651 -572 1223 -1113 1610 -446 319 -994 517 -1480 535 -326 12 -398 12 -493 4z m639 -319 c570 -83 1067 -334 1479 -745 379 -378 640 -882 729 -1410 59 -345 45 -742 -38 -1080 -212 -863 -878 -1578 -1731 -1858 -246 -81 -460 -117 -747 -124 -447 -12 -818 68 -1213 261 -287 141 -486 284 -716 516 -403 406 -645 896 -736 1490 -22 146 -25 559 -5 695 51 335 153 648 299 910 436 787 1221 1295 2108 1365 144 12 419 2 571 -20z" />
		<path d="M2720 5505 c-205 -26 -215 -29 -212 -50 2 -11 5 -21 7 -23 1 -2 46 4 100 13 357 57 752 31 1095 -71 391 -118 731 -323 1025 -619 378 -380 595 -807 691 -1360 26 -147 26 -577 1 -730 -121 -720 -489 -1295 -1085 -1694 -893 -598 -2120 -518 -2930 190 -49 44 -57 48 -71 35 -18 -19 -7 -33 98 -119 523 -429 1224 -624 1906 -531 648 89 1252 445 1649 974 265 352 423 742 488 1205 16 119 16 484 -1 605 -43 311 -108 529 -241 805 -367 761 -1128 1287 -1989 1374 -137 14 -401 12 -531 -4z" />
		<path d="M3010 5197 l0 -143 144 -12 c422 -35 774 -171 1101 -427 91 -71 278 -260 346 -350 228 -298 372 -660 410 -1025 18 -174 6 -444 -26 -599 -48 -232 -135 -463 -239 -636 l-54 -90 116 -77 c65 -43 122 -77 127 -77 22 0 172 288 229 440 169 455 198 910 87 1370 -188 787 -771 1412 -1548 1663 -189 61 -455 106 -623 106 l-70 0 0 -143z" />
		<path d="M2800 4944 c-14 -2 -70 -11 -125 -20 -344 -55 -708 -234 -975 -481 -495 -458 -715 -1142 -580 -1805 85 -416 315 -807 633 -1076 352 -298 796 -462 1252 -462 801 0 1520 498 1800 1245 185 495 162 1038 -66 1514 -237 496 -656 854 -1189 1014 -185 56 -279 69 -515 72 -115 2 -221 1 -235 -1z m485 -309 c651 -114 1174 -618 1314 -1268 156 -721 -200 -1466 -859 -1797 -246 -124 -455 -173 -735 -173 -290 0 -495 50 -756 185 -821 423 -1121 1465 -653 2265 270 461 708 741 1264 807 70 8 337 -3 425 -19z" />
		<path d="M3010 4076 l0 -43 93 -6 c56 -3 128 -15 182 -31 394 -116 677 -453 722 -859 5 -37 11 -67 16 -67 4 0 21 0 38 0 l32 0 -6 80 c-19 240 -134 476 -320 657 -127 123 -262 205 -424 259 -77 25 -238 54 -300 54 -32 0 -33 -1 -33 -44z" />
		<path d="M1697 3892 c-151 -224 -236 -474 -255 -752 l-7 -110 147 0 148 0 0 44 c0 202 93 488 215 662 25 36 45 68 45 72 0 7 -85 75 -191 155 l-37 27 -65 -98z" />
		<path d="M1919 3043 c-4 -42 5 -170 16 -227 69 -354 325 -666 658 -800 85 -34 184 -63 190 -55 2 2 7 20 10 40 l5 36 -66 18 c-159 42 -313 133 -437 260 -179 181 -277 395 -292 638 l-6 97 -39 0 c-21 0 -38 -3 -39 -7z" />
		<path d="M4011 2245 c-118 -154 -260 -270 -446 -363 -520 -259 -1160 -125 -1533 320 -36 43 -71 77 -78 74 -18 -7 -224 -157 -224 -163 0 -7 56 -78 118 -147 167 -188 412 -346 667 -432 304 -101 676 -101 981 1 321 107 630 341 809 613 15 23 26 44 24 46 -13 10 -221 137 -232 142 -8 3 -41 -31 -86 -91z" />
		<path d="M1545 4819 c-131 -106 -406 -403 -388 -420 25 -23 216 -169 223 -169 4 0 28 26 53 58 60 75 173 192 270 278 l77 69 -85 113 c-48 61 -89 112 -93 112 -4 -1 -29 -19 -57 -41z" />
		<path d="M690 2957 c0 -200 40 -426 116 -661 253 -775 919 -1369 1724 -1537 124 -26 332 -49 443 -49 l87 0 0 149 0 148 -167 6 c-1018 36 -1851 870 -1909 1910 l-7 127 -143 0 -144 0 0 -93z" />
	</g>
</svg>
