<svg
	height='100px'
	width='100px'
	fill="#FFFFFF"
	xmlns:x="http://ns.adobe.com/Extensibility/1.0/"
	xmlns:i="http://ns.adobe.com/AdobeIllustrator/10.0/"
	xmlns:graph="http://ns.adobe.com/Graphs/1.0/"
	xmlns="http://www.w3.org/2000/svg"
	xmlns:xlink="http://www.w3.org/1999/xlink"
	version="1.1"
	x="0px"
	y="0px"
	viewBox="-949 951 100 100"
	style="enable-background:new -949 951 100 100;"
	xml:space="preserve"
>
	<g>
		<g i:extraneous="self">
			<path d="M-851.5,998.3c0-8.2-6.5-14.9-14.7-15.1c-2.3-8.6-10.2-14.9-19.5-14.9c-5.3,0-10.2,2.1-13.8,5.4    c-3.7-2.4-8.1-3.8-12.8-3.8c-6,0-11.5,2.3-15.7,6c-1.1-0.3-2.2-0.4-3.4-0.4c-8.4,0-15.1,6.8-15.1,15.1c0,4.5,2,8.5,5,11.2    c-1.8,2.5-2.8,5.5-2.8,8.8c0,8.4,6.8,15.1,15.1,15.1c2.6,0,5-0.6,7.1-1.8c3.6,5.8,10,9.7,17.3,9.7c6.6,0,12.4-3.1,16.1-8    c2.7,3.8,7.2,6.3,12.3,6.3c8.4,0,15.1-6.8,15.1-15.1c0-1.5-0.2-2.9-0.6-4.3C-855.9,1010.7-851.5,1005-851.5,998.3z M-916.2,1005.6    c-3.1,0-5.5-2.5-5.5-5.5c0-3.1,2.5-5.5,5.5-5.5c3.1,0,5.5,2.5,5.5,5.5C-910.7,1003.1-913.2,1005.6-916.2,1005.6z M-899,1005.6    c-3.1,0-5.5-2.5-5.5-5.5c0-3.1,2.5-5.5,5.5-5.5c3.1,0,5.5,2.5,5.5,5.5C-893.5,1003.1-895.9,1005.6-899,1005.6z M-881.8,1005.6    c-3.1,0-5.5-2.5-5.5-5.5c0-3.1,2.5-5.5,5.5-5.5c3.1,0,5.5,2.5,5.5,5.5C-876.2,1003.1-878.7,1005.6-881.8,1005.6z" />
		</g>
	</g>
</svg>
