<svg
	height='100px'
	width='100px'
	fill="#FFFFFF"
	xmlns="http://www.w3.org/2000/svg"
	xmlns:xlink="http://www.w3.org/1999/xlink"
	version="1.1"
	x="0px"
	y="0px"
	viewBox="0 0 100 100"
	enable-background="new 0 0 100 100"
	xml:space="preserve"
>
	<path d="M82.464,77.802c-0.773-0.379-1.543-0.763-2.315-1.145c-1.595-0.79-3.179-1.6-4.739-2.458  c-1.655-0.91-3.285-1.863-4.891-2.858c-2.062-1.277-4.072-2.633-6.029-4.066c-0.052-0.038-0.1-0.08-0.146-0.116  c-0.004-0.047-0.008-0.083-0.011-0.119c-0.04-0.513-0.098-1.023-0.19-1.529c-0.152-0.835-0.377-1.65-0.659-2.449  c-0.047-0.133-0.074-0.263-0.054-0.403c0.008-0.057,0.009-0.115,0.014-0.173c0.04-0.454,0.082-0.908,0.12-1.363  c0.022-0.267,0.016-0.27,0.211-0.447c0.819-0.745,1.638-1.492,2.463-2.231c0.389-0.348,0.769-0.704,1.109-1.101  c0.526-0.615,0.955-1.29,1.259-2.042c0.444-1.098,0.555-2.24,0.457-3.411c-0.025-0.303-0.05-0.606-0.07-0.909  c-0.023-0.339-0.043-0.679-0.061-1.019c-0.025-0.477-0.046-0.954-0.067-1.432c-0.003-0.064,0.003-0.127,0.005-0.193  c0.058-0.032,0.108-0.06,0.158-0.088c0.051-0.028,0.102-0.055,0.152-0.084c0.729-0.413,1.265-1.005,1.622-1.759  c0.225-0.474,0.365-0.974,0.451-1.491c0.093-0.559,0.118-1.122,0.114-1.688c-0.001-0.101,0.003-0.203,0.02-0.302  c0.067-0.378,0.112-0.758,0.139-1.141c0.05-0.706-0.008-1.404-0.169-2.091c-0.162-0.692-0.292-1.388-0.349-2.096  c-0.026-0.324-0.033-0.65-0.049-0.982c0.108-0.095,0.21-0.187,0.315-0.275c0.112-0.095,0.174-0.214,0.169-0.36  c-0.006-0.195-0.009-0.392-0.036-0.584c-0.02-0.142-0.059-0.285-0.117-0.416c-0.148-0.332-0.376-0.589-0.751-0.66  c-0.236-0.045-0.475-0.041-0.707,0.045c-0.542,0.201-1.037,0.479-1.449,0.892c-0.028,0.028-0.05,0.074-0.105,0.057  c-0.007-0.012-0.017-0.024-0.019-0.036c-0.09-0.652-0.168-1.306-0.273-1.956c-0.093-0.578-0.202-1.155-0.328-1.727  c-0.177-0.798-0.376-1.591-0.514-2.397c-0.063-0.372-0.104-0.745-0.076-1.123c0.032-0.435,0.122-0.859,0.242-1.277  c0.018-0.063,0.042-0.124,0.053-0.188c0.026-0.147-0.068-0.299-0.205-0.343c-0.151-0.048-0.303,0.006-0.376,0.137  c-0.024,0.044-0.04,0.093-0.053,0.142c-0.052,0.188-0.107,0.376-0.152,0.566c-0.159,0.676-0.203,1.355-0.081,2.046  c0.123,0.699,0.263,1.393,0.432,2.082c0.2,0.816,0.362,1.639,0.484,2.47c0.116,0.787,0.206,1.578,0.308,2.368  c0.017,0.131,0.016,0.258-0.032,0.385c-0.073,0.195-0.069,0.393-0.036,0.598c0.074,0.472,0.144,0.944,0.198,1.419  c0.069,0.611,0.124,1.224,0.155,1.839c0.039,0.774,0.061,1.548,0.046,2.323c-0.025,1.231-0.068,2.461-0.053,3.692  c0.016,1.347,0.057,2.693,0.133,4.037c0.026,0.455,0.059,0.91,0.095,1.365c0.037,0.469,0.064,0.938,0.033,1.41  c-0.056,0.828-0.269,1.61-0.643,2.349c-0.387,0.765-0.916,1.422-1.542,2.003c-0.212,0.197-0.435,0.383-0.651,0.575  c-1.591,1.415-3.141,2.873-4.654,4.371c-0.469,0.464-0.972,0.889-1.516,1.263c-1.271,0.874-2.676,1.394-4.207,1.566  c-0.526,0.059-1.053,0.066-1.583,0.025c-0.747-0.058-1.474-0.206-2.185-0.442c-0.906-0.301-1.746-0.734-2.538-1.262  c-2.3-1.535-4.599-3.069-6.897-4.607c-0.617-0.413-1.172-0.898-1.639-1.478c-0.603-0.747-1.003-1.587-1.159-2.538  c-0.054-0.328-0.096-0.659-0.142-0.988c-0.079-0.566-0.158-1.132-0.237-1.698c-0.08-0.573-0.161-1.147-0.241-1.72  c-0.078-0.559-0.157-1.118-0.235-1.677c-0.078-0.559-0.156-1.118-0.235-1.677c-0.094-0.666-0.189-1.333-0.285-1.999  c-0.09-0.623-0.173-1.247-0.276-1.868c-0.193-1.157-0.445-2.301-0.733-3.438c-0.034-0.135-0.09-0.257-0.169-0.373  c-0.279-0.409-0.605-0.776-0.98-1.099c-0.086-0.074-0.135-0.157-0.163-0.27c-0.289-1.173-0.551-2.352-0.768-3.541  c-0.133-0.726-0.248-1.455-0.331-2.189c-0.042-0.367-0.077-0.735-0.093-1.103c-0.037-0.848,0.005-1.694,0.092-2.537  c0.07-0.677,0.159-1.351,0.28-2.021c0.028-0.157,0.059-0.313,0.082-0.47c0.025-0.171-0.079-0.319-0.243-0.359  c-0.161-0.039-0.314,0.053-0.369,0.224c-0.007,0.021-0.012,0.042-0.016,0.063c-0.125,0.676-0.231,1.355-0.311,2.038  c-0.045,0.388-0.08,0.778-0.109,1.167c-0.042,0.585-0.068,1.171-0.043,1.758c0.032,0.753,0.122,1.5,0.229,2.245  c0.126,0.874,0.286,1.742,0.472,2.605c0.112,0.516,0.23,1.031,0.344,1.546c0.01,0.045,0.032,0.092-0.009,0.145  c-0.045-0.024-0.084-0.043-0.12-0.065c-0.289-0.17-0.598-0.29-0.919-0.383c-0.304-0.088-0.609-0.114-0.919-0.017  c-0.302,0.095-0.49,0.294-0.581,0.593c-0.052,0.169-0.058,0.342-0.06,0.516c-0.001,0.138,0.007,0.275,0.004,0.413  c-0.011,0.565-0.035,1.126-0.149,1.684c-0.171,0.842-0.002,1.625,0.474,2.34c0.072,0.108,0.15,0.214,0.231,0.315  c0.053,0.066,0.076,0.133,0.077,0.218c0.009,0.536,0.057,1.069,0.158,1.597c0.274,1.43,0.914,2.661,1.989,3.653  c0.178,0.164,0.328,0.341,0.451,0.549c0.199,0.337,0.435,0.65,0.713,0.928c0.17,0.17,0.354,0.322,0.565,0.437  c0.314,0.17,0.643,0.259,1.003,0.183c0.04-0.008,0.083-0.001,0.14-0.001c0.018,0.117,0.036,0.23,0.052,0.344  c0.079,0.566,0.158,1.132,0.237,1.698c0.08,0.573,0.161,1.146,0.241,1.72c0.051,0.365,0.085,0.735,0.188,1.09  c0.07,0.241,0.095,0.481,0.086,0.728c-0.002,0.051-0.003,0.102,0,0.152c0.008,0.112-0.023,0.209-0.083,0.307  c-0.423,0.692-0.814,1.402-1.177,2.127c-0.05,0.1-0.117,0.178-0.199,0.253c-0.337,0.308-0.677,0.612-1.002,0.931  c-0.777,0.763-1.491,1.581-2.089,2.492c-0.735,1.12-1.675,2.027-2.798,2.749c-0.635,0.408-1.31,0.74-2.002,1.037  c-1.245,0.534-2.451,1.144-3.621,1.826c-1.277,0.745-2.502,1.567-3.673,2.47c-0.098,0.076-0.195,0.149-0.244,0.27  c-0.008,0.021-0.045,0.03-0.069,0.044c0,0.058,0,0.116,0,0.174c0.055,0.016,0.071,0.064,0.099,0.107  c0.154,0.233,0.388,0.279,0.617,0.123c0.054-0.037,0.105-0.078,0.156-0.117c1.282-0.983,2.629-1.868,4.038-2.659  c0.814-0.457,1.646-0.877,2.498-1.259c0.056-0.025,0.108-0.075,0.189-0.046c0,0.034,0.003,0.069-0.001,0.104  c-0.032,0.288-0.065,0.575-0.098,0.862c-0.052,0.46-0.105,0.92-0.157,1.38c-0.05,0.438-0.099,0.877-0.149,1.315  c-0.051,0.453-0.103,0.905-0.154,1.358c-0.05,0.438-0.098,0.877-0.148,1.315c-0.051,0.446-0.103,0.891-0.154,1.336  c-0.053,0.467-0.107,0.934-0.159,1.401c-0.023,0.201-0.046,0.403-0.063,0.604c-0.013,0.157,0.066,0.261,0.208,0.321  c0.053,0.022,0.109,0.039,0.164,0.058c0.576,0.192,1.152,0.383,1.728,0.575c0.651,0.217,1.303,0.433,1.953,0.653  c0.065,0.022,0.147,0.016,0.187,0.091c0.003,0,0.007-0.001,0.01-0.001c-0.002,0.002-0.004,0.003-0.006,0.004  c-0.166-0.017-0.332-0.033-0.497-0.053c-0.424-0.051-0.847-0.105-1.271-0.157c-0.402-0.05-0.804-0.099-1.206-0.148  s-0.805-0.093-1.206-0.15c-0.26-0.037-0.52-0.039-0.78-0.014c-0.216,0.021-0.428,0.069-0.627,0.163  c-0.393,0.184-0.598,0.566-0.539,0.994c0.032,0.233,0.118,0.447,0.221,0.655c0.13,0.26,0.295,0.498,0.467,0.731  c0.373,0.507,0.75,1.012,1.118,1.523c1.36,1.895,2.63,3.848,3.807,5.861c0.427,0.731,0.835,1.473,1.252,2.21  c0.036,0.063,0.068,0.129,0.115,0.183c0.097,0.115,0.267,0.134,0.395,0.054c0.124-0.078,0.178-0.222,0.131-0.358  c-0.017-0.047-0.04-0.093-0.065-0.137c-0.368-0.657-0.728-1.318-1.106-1.968c-1.54-2.65-3.224-5.205-5.068-7.654  c-0.117-0.156-0.232-0.315-0.334-0.481c-0.087-0.141-0.16-0.292-0.225-0.444c-0.039-0.092-0.054-0.194-0.07-0.294  c-0.015-0.093,0.025-0.169,0.096-0.229c0.079-0.067,0.171-0.111,0.27-0.134c0.233-0.054,0.469-0.089,0.71-0.056  c0.165,0.023,0.33,0.043,0.495,0.063c0.524,0.064,1.049,0.126,1.573,0.191c0.524,0.065,1.048,0.133,1.572,0.198  c0.524,0.065,1.049,0.126,1.573,0.191c0.639,0.079,1.278,0.162,1.917,0.242c0.172,0.022,0.345,0.039,0.518,0.06  c0.106,0.013,0.2-0.011,0.282-0.082c0.044-0.038,0.091-0.071,0.136-0.108c0.802-0.645,1.478-1.405,2.053-2.257  c0.528-0.783,0.957-1.618,1.32-2.489c0.089-0.214,0.178-0.428,0.256-0.645c0.062-0.174-0.024-0.342-0.19-0.404  c-0.152-0.057-0.315,0.017-0.393,0.179c-0.028,0.059-0.049,0.12-0.073,0.181c-0.363,0.933-0.796,1.831-1.344,2.671  c-0.525,0.805-1.142,1.531-1.877,2.153c-0.055,0.046-0.112,0.09-0.162,0.13c-0.297-0.073-6.654-2.201-6.819-2.282  c0-0.047-0.005-0.097,0.001-0.147c0.049-0.431,0.102-0.862,0.151-1.294c0.103-0.906,0.206-1.812,0.308-2.718  c0.093-0.827,0.184-1.654,0.277-2.481c0.1-0.892,0.202-1.783,0.303-2.675c0.014-0.122,0.033-0.244,0.04-0.367  c0.005-0.093,0.049-0.146,0.132-0.177c0.041-0.015,0.079-0.036,0.118-0.054c0.665-0.307,1.301-0.664,1.903-1.082  c1.048-0.726,1.928-1.615,2.63-2.68c0.451-0.685,0.97-1.316,1.53-1.915c0.021-0.023,0.039-0.063,0.095-0.042  c-0.057,0.148-0.11,0.296-0.171,0.441c-0.047,0.113-0.049,0.225-0.018,0.34c0.011,0.042,0.024,0.083,0.036,0.125  c0.521,1.772,1.147,3.505,1.888,5.198c0.613,1.4,1.315,2.754,2.078,4.079c1.39,2.416,2.675,4.887,3.87,7.405  c1.167,2.459,2.234,4.96,3.21,7.5c0.029,0.074,0.054,0.15,0.091,0.221c0.1,0.191,0.321,0.269,0.519,0.184  c0.051-0.022,0.098-0.052,0.159-0.085c0.028,0.069,0.055,0.127,0.076,0.186c0.235,0.684,0.469,1.368,0.704,2.053  c0.171,0.5,0.346,0.998,0.513,1.499c0.052,0.157,0.122,0.293,0.28,0.367c0.015,0.007,0.021,0.034,0.031,0.052  c0.072,0,0.145,0,0.217,0c0.019-0.02,0.036-0.045,0.058-0.06c0.249-0.169,0.297-0.303,0.199-0.589  c-0.18-0.527-0.362-1.053-0.543-1.58c-0.282-0.821-0.564-1.642-0.845-2.463c-0.021-0.061-0.039-0.123-0.054-0.173  c0.005-0.021,0.006-0.028,0.008-0.035c0.002-0.007,0.005-0.014,0.009-0.02c0.008-0.012,0.016-0.024,0.025-0.035  c1.492-1.696,2.983-3.391,4.475-5.087c0.014-0.016,0.033-0.027,0.05-0.039c0.005-0.003,0.013,0,0.036,0.002  c0.007,0.065,0.015,0.134,0.023,0.203c0.008,0.065,0.019,0.129,0.026,0.194c0.164,1.594,0.556,3.13,1.169,4.611  c0.48,1.159,0.863,2.349,1.118,3.578c0.072,0.347,0.127,0.697,0.189,1.046c0.008,0.043,0.011,0.087,0.026,0.127  c0.052,0.141,0.191,0.216,0.349,0.193c0.139-0.02,0.249-0.137,0.25-0.284c0.001-0.101-0.014-0.202-0.03-0.302  c-0.253-1.579-0.7-3.102-1.313-4.578c-0.429-1.032-0.747-2.098-0.954-3.196c-0.04-0.213-0.07-0.427-0.104-0.634  c0.063-0.064,0.131-0.042,0.193-0.045c0.478-0.021,0.953-0.063,1.42-0.173c0.402-0.094,0.794-0.22,1.164-0.408  c0.544-0.276,1.005-0.654,1.382-1.134c0.079-0.101,0.154-0.208,0.264-0.285c0.069,0.041,0.078,0.109,0.101,0.166  c0.353,0.864,0.691,1.733,1.002,2.613c0.765,2.164,1.398,4.366,1.922,6.6c0.101,0.43,0.195,0.861,0.292,1.291  c0.013,0.056,0.024,0.114,0.043,0.168c0.055,0.153,0.203,0.232,0.365,0.199c0.14-0.029,0.245-0.168,0.239-0.32  c-0.002-0.043-0.011-0.086-0.021-0.128c-0.561-2.575-1.242-5.116-2.104-7.607c-0.367-1.06-0.765-2.108-1.19-3.145  c-0.024-0.06-0.048-0.119-0.075-0.185c0.089-0.084,0.202-0.092,0.302-0.116c0.226-0.054,0.459-0.058,0.691-0.053  c0.073,0.001,0.124,0.029,0.166,0.084c0.214,0.274,0.446,0.535,0.639,0.822c0.966,1.443,1.921,2.894,2.883,4.34  c0.071,0.106,0.109,0.212,0.114,0.341c0.039,0.94,0.056,1.881,0.044,2.822c0,0.022-0.001,0.043-0.001,0.065  c-0.013,0.861-0.045,1.722-0.105,2.581c-0.004,0.051-0.004,0.101-0.008,0.152c-0.011,0.176,0.06,0.308,0.21,0.399  c0.037,0.022,0.069,0.052,0.103,0.079c0.072,0,0.145,0,0.217,0c0.006-0.062,0.063-0.073,0.102-0.102  c0.099-0.072,0.16-0.166,0.172-0.289c0.007-0.072,0.017-0.144,0.021-0.216c0.084-1.33,0.118-2.661,0.1-3.994  c-0.003-0.203-0.006-0.405-0.009-0.608c-0.001-0.057,0-0.114,0-0.173c0.042-0.02,0.074-0.035,0.106-0.05  c0.166-0.081,0.248-0.212,0.247-0.398c-0.001-0.261,0.002-0.521,0.001-0.782c-0.006-1.52-0.011-3.041-0.021-4.561  c-0.005-0.688-0.017-1.375-0.032-2.063c-0.019-0.832-0.043-1.664-0.067-2.497c-0.018-0.637-0.037-1.274-0.06-1.91  c-0.02-0.564-0.045-1.128-0.069-1.693c-0.015-0.362-0.031-0.723-0.048-1.085c-0.028-0.607-0.058-1.215-0.087-1.822  c-0.002-0.048,0-0.097,0-0.153c0.085,0.002,0.129,0.055,0.179,0.09c0.486,0.341,0.969,0.686,1.456,1.026  c0.368,0.257,0.739,0.509,1.112,0.759c0.11,0.073,0.205,0.157,0.29,0.258c1.369,1.611,2.74,3.22,4.111,4.829  c0.385,0.452,0.77,0.904,1.154,1.356c0.051,0.06,0.101,0.122,0.147,0.179c-0.003,0.016-0.003,0.023-0.006,0.028  c-0.003,0.006-0.008,0.013-0.014,0.017c-0.054,0.036-0.108,0.072-0.164,0.106c-0.941,0.569-1.882,1.139-2.824,1.707  c-0.011,0.007-0.028,0.005-0.059,0.011c-0.048-0.049-0.103-0.105-0.157-0.163c-0.714-0.76-1.427-1.52-2.14-2.281  c-0.04-0.042-0.081-0.083-0.119-0.126c-0.106-0.122-0.331-0.113-0.434-0.016c-0.107,0.101-0.164,0.287-0.022,0.447  c0.048,0.054,0.098,0.107,0.147,0.16c0.664,0.708,1.333,1.41,1.99,2.124c0.803,0.874,1.596,1.758,2.393,2.639  c0.257,0.284,0.512,0.572,0.77,0.856c0.079,0.087,0.138,0.183,0.186,0.29c0.76,1.691,1.306,3.447,1.65,5.269  c0.147,0.776,0.257,1.556,0.339,2.341c0.005,0.043,0.008,0.087,0.019,0.129c0.045,0.168,0.192,0.261,0.363,0.234  c0.15-0.024,0.263-0.166,0.254-0.33c-0.007-0.123-0.024-0.245-0.038-0.367c-0.12-1.05-0.289-2.093-0.529-3.122  c-0.36-1.54-0.859-3.034-1.512-4.475c-0.057-0.127-0.13-0.24-0.223-0.343c-0.781-0.866-1.559-1.733-2.338-2.601  c-0.043-0.048-0.084-0.098-0.131-0.154c0.048-0.075,0.126-0.102,0.19-0.141c0.971-0.59,1.943-1.178,2.914-1.767  c0.062-0.037,0.126-0.073,0.183-0.117c0.147-0.114,0.17-0.29,0.062-0.443c-0.029-0.041-0.064-0.078-0.097-0.117  c-1.352-1.588-2.703-3.175-4.055-4.763c-0.059-0.069-0.116-0.14-0.201-0.244c0.114,0.027,0.169,0.074,0.227,0.11  c0.524,0.322,1.046,0.648,1.571,0.968c1.94,1.185,3.924,2.291,5.937,3.344c1.699,0.888,3.423,1.727,5.139,2.581  c0.084,0.042,0.167,0.087,0.266,0.082c0.155-0.008,0.282-0.057,0.344-0.215c0.007-0.019,0.025-0.034,0.037-0.05  c0-0.087,0-0.174,0-0.261C82.712,77.947,82.598,77.868,82.464,77.802z M68.505,36.581c0.148-0.407,0.407-0.73,0.748-0.991  c0.243-0.186,0.512-0.327,0.797-0.435c0.047-0.018,0.097-0.031,0.146-0.035c0.199-0.014,0.299,0.048,0.356,0.24  c0.041,0.137,0.059,0.282,0.089,0.432c-0.062,0.06-0.116,0.117-0.174,0.169c-0.376,0.344-0.712,0.722-0.975,1.159  c-0.093,0.154-0.169,0.32-0.249,0.481c-0.044,0.088-0.048,0.182-0.018,0.275c0.054,0.169,0.174,0.266,0.346,0.288  c0.165,0.021,0.297-0.049,0.387-0.189c0.027-0.042,0.046-0.09,0.07-0.135c0.037-0.069,0.076-0.137,0.113-0.206  c0.016,0.002,0.031,0.004,0.047,0.006c0.006,0.055,0.013,0.109,0.019,0.164c0.006,0.058,0.012,0.115,0.018,0.173  c0.065,0.649,0.194,1.287,0.34,1.922c0.154,0.668,0.203,1.345,0.13,2.027c-0.033,0.309-0.085,0.616-0.126,0.924  c-0.012,0.093-0.021,0.187-0.02,0.281c0.005,0.377,0.001,0.753-0.039,1.128c-0.055,0.513-0.154,1.016-0.346,1.496  c-0.236,0.59-0.59,1.093-1.097,1.483c-0.062,0.048-0.129,0.091-0.188,0.132c-0.077-0.035-0.053-0.093-0.053-0.138  c-0.005-0.644-0.015-1.289-0.009-1.933c0.01-0.955,0.035-1.911,0.049-2.866c0.012-0.825-0.004-1.651-0.061-2.474  c-0.046-0.657-0.104-1.313-0.197-1.965c-0.05-0.351-0.092-0.703-0.147-1.053C68.443,36.813,68.462,36.699,68.505,36.581z   M36.939,49.756c-0.191-0.076-0.352-0.198-0.5-0.339c-0.221-0.212-0.411-0.451-0.561-0.716c-0.155-0.274-0.354-0.502-0.585-0.716  c-0.905-0.838-1.453-1.881-1.71-3.081c-0.12-0.561-0.185-1.129-0.17-1.703c0.005-0.195-0.056-0.345-0.184-0.489  c-0.314-0.352-0.533-0.755-0.62-1.224c-0.052-0.281-0.061-0.564-0.001-0.842c0.145-0.663,0.169-1.334,0.163-2.008  c-0.001-0.094-0.009-0.189-0.001-0.282c0.006-0.078,0.023-0.157,0.047-0.232c0.018-0.058,0.067-0.098,0.132-0.093  c0.115,0.009,0.232,0.011,0.343,0.037c0.233,0.055,0.453,0.146,0.663,0.263c0.672,0.374,1.258,0.847,1.725,1.464  c0.116,0.153,0.195,0.315,0.242,0.502c0.271,1.096,0.508,2.199,0.689,3.313c0.102,0.628,0.184,1.26,0.275,1.89  c0.081,0.566,0.162,1.131,0.242,1.697c0.078,0.552,0.155,1.103,0.232,1.655c0.037,0.265,0.075,0.53,0.112,0.795  c0.006,0.043,0.009,0.086,0.015,0.149C37.286,49.844,37.11,49.824,36.939,49.756z M39.244,57.624  c0.053,0.057,0.079,0.08,0.099,0.107c0.555,0.765,1.244,1.391,2.026,1.914c2.292,1.534,4.586,3.064,6.879,4.596  c0.773,0.516,1.587,0.953,2.46,1.276c0.695,0.257,1.408,0.441,2.143,0.533c0.597,0.075,1.196,0.101,1.798,0.065  c1.115-0.068,2.189-0.305,3.222-0.732c1.192-0.492,2.241-1.203,3.178-2.083c0.422-0.396,0.83-0.808,1.245-1.213  c0.093-0.091,0.187-0.182,0.281-0.271c0.025-0.023,0.053-0.043,0.077-0.061c0.052,0.031,0.036,0.071,0.033,0.103  c-0.032,0.382-0.067,0.764-0.101,1.146c-0.037,0.418-0.075,0.836-0.112,1.254c-0.038,0.418-0.076,0.836-0.113,1.254  c-0.034,0.382-0.068,0.764-0.101,1.146c-0.046,0.519-0.089,1.038-0.138,1.557c-0.007,0.07-0.031,0.141-0.06,0.206  c-0.771,1.69-1.734,3.256-2.984,4.638c-0.658,0.727-1.38,1.383-2.164,1.972c-0.034,0.026-0.071,0.048-0.116,0.078  c-0.051-0.043-0.102-0.083-0.149-0.126c-1.125-1.044-2.279-2.057-3.46-3.038c-1.727-1.435-3.509-2.799-5.361-4.068  c-0.573-0.393-1.154-0.774-1.735-1.155c-1.086-0.713-2.107-1.507-3.036-2.418c-1.283-1.259-2.339-2.681-3.101-4.315  c-0.248-0.532-0.459-1.077-0.645-1.634C39.234,58.129,39.225,57.904,39.244,57.624z M47.845,85.17  c-0.069,0.079-0.129,0.17-0.237,0.237c-0.029-0.065-0.054-0.115-0.075-0.167c-1.049-2.691-2.208-5.334-3.473-7.931  c-1.087-2.232-2.241-4.429-3.485-6.579c-1.517-2.624-2.709-5.388-3.606-8.281c-0.06-0.193-0.113-0.389-0.179-0.581  c-0.033-0.096-0.028-0.18,0.011-0.271c0.196-0.451,0.375-0.91,0.587-1.354c0.292-0.614,0.607-1.217,0.915-1.823  c0.028-0.055,0.044-0.124,0.125-0.155c0.019,0.056,0.039,0.108,0.055,0.161c0.64,2.114,1.726,3.973,3.194,5.616  c1.097,1.227,2.351,2.272,3.715,3.188c0.673,0.452,1.354,0.892,2.022,1.351c1.648,1.131,3.238,2.341,4.785,3.607  c1.312,1.073,2.589,2.186,3.833,3.337c0.047,0.044,0.097,0.086,0.147,0.13c-0.028,0.085-0.085,0.132-0.131,0.184  c-0.965,1.099-1.929,2.198-2.895,3.297C51.384,81.148,49.615,83.159,47.845,85.17z M58.997,78.39  c-0.584,0.112-1.064,0.399-1.445,0.855c-0.009,0.011-0.019,0.022-0.028,0.034c-0.529,0.707-1.242,1.134-2.083,1.365  c-0.519,0.143-1.051,0.198-1.588,0.209c-0.029,0.001-0.058-0.002-0.086-0.005c-0.014-0.002-0.027-0.009-0.053-0.019  c-0.007-0.034-0.021-0.074-0.025-0.115c-0.022-0.245-0.039-0.49-0.063-0.735c-0.009-0.093,0.015-0.166,0.078-0.236  c0.246-0.275,0.488-0.554,0.731-0.831c0.745-0.848,1.49-1.696,2.235-2.544c0.052-0.059,0.107-0.116,0.165-0.18  c0.714,0.438,2.245,1.792,2.433,2.15C59.177,78.355,59.087,78.372,58.997,78.39z M63.943,83.419  c-0.069-0.036-0.094-0.097-0.127-0.147c-0.357-0.536-0.713-1.073-1.069-1.61c-0.472-0.712-0.946-1.423-1.414-2.137  c-0.227-0.346-0.491-0.663-0.754-0.98c-0.747-0.899-1.57-1.723-2.484-2.453c-0.192-0.153-0.391-0.298-0.598-0.456  c0.039-0.039,0.07-0.076,0.107-0.105c0.949-0.734,1.805-1.564,2.568-2.489c0.633-0.767,1.193-1.584,1.689-2.445  c0.354-0.615,0.673-1.248,0.967-1.894c0.048-0.107,0.084-0.213,0.094-0.331c0.036-0.44,0.078-0.88,0.118-1.319  c0.037-0.411,0.074-0.822,0.111-1.233c0.014-0.159,0.027-0.317,0.043-0.476c0.005-0.048,0.018-0.094,0.027-0.141  c0.009,0,0.017-0.001,0.026-0.001c0.029,0.133,0.062,0.265,0.085,0.399c0.101,0.578,0.171,1.159,0.195,1.746  c0.027,0.673,0.07,1.345,0.104,2.017c0.018,0.354,0.036,0.709,0.05,1.063c0.037,0.955,0.074,1.91,0.106,2.865  c0.041,1.237,0.086,2.475,0.113,3.712c0.046,2.056,0.067,4.112,0.063,6.168C63.963,83.247,63.976,83.327,63.943,83.419z" />
	<path d="M36.504,19.139c0.244,0.216,0.493,0.427,0.75,0.626c0.675,0.524,1.38,1.006,2.092,1.479  c0.097,0.065,0.184,0.138,0.264,0.223c0.307,0.328,0.64,0.629,0.992,0.909c0.839,0.667,1.77,1.175,2.757,1.586  c0.04,0.017,0.08,0.034,0.122,0.044c0.236,0.059,0.457-0.058,0.542-0.284c0.079-0.213-0.01-0.44-0.221-0.55  c-0.064-0.034-0.132-0.058-0.199-0.086c-0.694-0.295-1.358-0.646-1.98-1.076c-1.565-1.082-2.628-2.527-3.155-4.359  c-0.106-0.369-0.191-0.742-0.206-1.129c-0.025-0.669,0.162-1.271,0.553-1.813c0.209-0.29,0.464-0.536,0.741-0.759  c0.437-0.352,0.927-0.617,1.434-0.85c0.878-0.403,1.797-0.683,2.733-0.911c0.703-0.171,1.413-0.312,2.127-0.425  c0.55-0.087,1.103-0.158,1.655-0.231c0.294-0.039,0.589-0.071,0.884-0.1c0.396-0.039,0.792-0.08,1.189-0.108  c0.592-0.042,1.183-0.099,1.765-0.222c0.604-0.128,1.186-0.32,1.733-0.612c0.07-0.037,0.141-0.074,0.206-0.12  c0.294-0.205,0.263-0.619-0.058-0.783c-0.031-0.016-0.062-0.033-0.093-0.049c-0.072,0-0.145,0-0.217,0  c-0.164,0.088-0.325,0.184-0.493,0.263c-0.703,0.33-1.451,0.487-2.219,0.562c-0.403,0.039-0.809,0.057-1.212,0.1  c-0.72,0.075-1.438,0.158-2.157,0.244c-0.805,0.096-1.604,0.232-2.398,0.395c-0.751,0.154-1.496,0.334-2.227,0.567  c-0.843,0.269-1.661,0.596-2.428,1.041c-0.497,0.289-0.957,0.625-1.36,1.036c-0.427,0.436-0.748,0.937-0.932,1.523  c-0.2,0.638-0.196,1.283-0.061,1.931c0.176,0.848,0.46,1.658,0.862,2.426c0.022,0.041,0.068,0.078,0.038,0.143  c-0.044-0.028-0.088-0.051-0.128-0.081c-0.299-0.228-0.602-0.452-0.895-0.688c-0.191-0.154-0.371-0.323-0.548-0.494  c-0.327-0.317-0.387-0.696-0.241-1.117c0.07-0.2,0.177-0.38,0.299-0.552c0.034-0.047,0.07-0.092,0.101-0.141  c0.048-0.078,0.062-0.162,0.032-0.25c-0.037-0.11-0.106-0.192-0.223-0.216c-0.13-0.027-0.244,0.004-0.329,0.113  c-0.257,0.328-0.47,0.678-0.573,1.086c-0.122,0.482-0.031,0.92,0.289,1.302C36.234,18.876,36.364,19.014,36.504,19.139z" />
	<path d="M51.652,11.628c-0.638,0.198-1.157,0.558-1.506,1.137c-0.089,0.148-0.162,0.307-0.229,0.467  c-0.3,0.716-0.651,1.405-1.079,2.053c-0.433,0.656-0.935,1.252-1.532,1.766c-0.038,0.033-0.075,0.068-0.111,0.104  c-0.393,0.39-0.536,0.865-0.473,1.408c0.029,0.245,0.096,0.482,0.185,0.712c0.143,0.366,0.33,0.708,0.553,1.031  c0.152,0.22,0.318,0.431,0.476,0.647c0.017,0.023,0.059,0.044,0.022,0.083c-0.01-0.002-0.018-0.003-0.024-0.006  c-0.018-0.011-0.036-0.024-0.054-0.036c-0.534-0.392-0.96-0.874-1.251-1.475c-0.445-0.917-1.149-1.567-2.077-1.978  c-0.352-0.155-0.716-0.274-1.092-0.354c-0.212-0.045-0.426-0.086-0.641-0.114c-0.214-0.027-0.402,0.105-0.468,0.308  c-0.063,0.193,0.01,0.402,0.179,0.514c0.074,0.049,0.158,0.066,0.245,0.078c0.396,0.054,0.78,0.15,1.154,0.293  c0.878,0.334,1.536,0.909,1.944,1.762c0.234,0.489,0.558,0.912,0.951,1.284c0.025,0.023,0.079,0.037,0.062,0.093  c-0.02-0.003-0.036-0.003-0.048-0.009c-0.617-0.288-1.223-0.595-1.792-0.971c-0.363-0.241-0.707-0.502-0.965-0.863  c-0.138-0.193-0.413-0.228-0.603-0.1c-0.198,0.134-0.263,0.381-0.142,0.593c0.068,0.118,0.154,0.228,0.243,0.332  c0.18,0.21,0.393,0.384,0.615,0.548c0.338,0.25,0.696,0.469,1.064,0.672c0.183,0.101,0.368,0.199,0.552,0.298  c-0.002,0.011-0.004,0.021-0.006,0.032c-0.042-0.006-0.085-0.008-0.126-0.018c-0.295-0.071-0.593-0.135-0.884-0.219  c-0.881-0.254-1.677-0.671-2.367-1.28c-0.833-0.735-1.407-1.644-1.801-2.674c-0.031-0.081-0.056-0.165-0.077-0.249  c-0.175-0.713-0.039-1.349,0.472-1.89c0.065-0.068,0.134-0.132,0.205-0.194c0.308-0.268,0.653-0.479,1.018-0.657  c0.771-0.377,1.587-0.623,2.419-0.82c0.056-0.013,0.114-0.023,0.167-0.044c0.174-0.067,0.286-0.238,0.283-0.423  c-0.003-0.193-0.113-0.348-0.293-0.416c-0.099-0.037-0.196-0.031-0.298-0.008c-0.551,0.122-1.094,0.276-1.627,0.462  c-0.499,0.175-0.984,0.381-1.446,0.642c-0.451,0.255-0.856,0.567-1.198,0.958c-0.3,0.344-0.525,0.727-0.627,1.175  c-0.102,0.446-0.085,0.89,0.019,1.334c0.082,0.347,0.217,0.674,0.367,0.996c0.413,0.888,0.952,1.688,1.67,2.361  c0.864,0.809,1.885,1.337,3.022,1.639c0.966,0.257,1.947,0.442,2.946,0.512c0.586,0.041,1.172,0.038,1.752-0.073  c0.121-0.023,0.24-0.053,0.359-0.082c0.068-0.017,0.127-0.009,0.181,0.041c0.031,0.03,0.068,0.054,0.103,0.08  c0.51,0.392,1.076,0.678,1.683,0.883c0.068,0.023,0.139,0.043,0.21,0.047c0.218,0.012,0.402-0.127,0.452-0.33  c0.054-0.218-0.044-0.427-0.248-0.523c-0.059-0.027-0.122-0.046-0.183-0.068c-0.592-0.211-1.14-0.502-1.609-0.924  c-0.599-0.538-1.158-1.114-1.67-1.736c-0.253-0.308-0.492-0.627-0.684-0.977c-0.1-0.183-0.187-0.375-0.267-0.569  c-0.078-0.19-0.098-0.392-0.082-0.597c0.016-0.203,0.094-0.378,0.227-0.529c0.048-0.054,0.102-0.103,0.155-0.152  c0.697-0.632,1.28-1.357,1.767-2.161c0.341-0.565,0.641-1.151,0.898-1.758c0.251-0.593,0.688-0.971,1.295-1.162  c0.335-0.106,0.679-0.142,1.028-0.147c0.619-0.01,1.228,0.076,1.827,0.219c1.214,0.288,2.387,0.695,3.524,1.208  c0.581,0.263,1.139,0.568,1.66,0.938c0.314,0.223,0.607,0.469,0.867,0.753c0.286,0.313,0.515,0.662,0.662,1.062  c0.01,0.027,0.019,0.055,0.031,0.081c0.097,0.207,0.305,0.305,0.52,0.247c0.23-0.062,0.359-0.253,0.329-0.491  c-0.007-0.057-0.025-0.113-0.042-0.168c-0.105-0.335-0.268-0.64-0.47-0.925c-0.236-0.333-0.518-0.622-0.828-0.886  c-0.588-0.501-1.242-0.899-1.936-1.232c-1.506-0.724-3.073-1.27-4.714-1.592c-0.577-0.113-1.161-0.167-1.749-0.141  C52.343,11.473,51.992,11.522,51.652,11.628z" />
	<path d="M54.834,11.093c0.055,0.018,0.112,0.028,0.168,0.041c1.431,0.336,2.836,0.759,4.199,1.312  c0.927,0.376,1.821,0.818,2.664,1.359c0.311,0.2,0.606,0.421,0.868,0.684c0.211,0.212,0.392,0.445,0.527,0.713  c0.205,0.409,0.267,0.836,0.177,1.287c-0.053,0.265-0.147,0.514-0.272,0.753c-0.204,0.392-0.385,0.794-0.543,1.207  c-0.392,1.029-0.627,2.091-0.655,3.195c-0.008,0.316,0.07,0.441,0.361,0.57c0.145,0.064,0.291,0.13,0.432,0.203  c0.94,0.49,1.659,1.2,2.142,2.147c0.241,0.473,0.411,0.972,0.526,1.49c0.03,0.134,0.05,0.271,0.088,0.403  c0.062,0.213,0.272,0.338,0.489,0.303c0.221-0.035,0.38-0.214,0.381-0.432c0-0.057-0.005-0.117-0.018-0.172  c-0.081-0.33-0.151-0.664-0.251-0.988c-0.396-1.276-1.104-2.335-2.207-3.111c-0.028-0.02-0.052-0.046-0.089-0.078  c0.053-0.022,0.09-0.043,0.131-0.055c0.593-0.173,1.195-0.214,1.803-0.099c0.17,0.032,0.338,0.077,0.507,0.116  c0.197,0.045,0.403-0.046,0.498-0.219c0.102-0.187,0.066-0.415-0.097-0.553c-0.054-0.045-0.121-0.082-0.189-0.102  c-0.298-0.091-0.602-0.156-0.913-0.186c-0.709-0.069-1.401,0.01-2.075,0.244c-0.045,0.016-0.089,0.048-0.142,0.025  c0.002-0.015,0-0.032,0.008-0.042c0.038-0.053,0.077-0.105,0.119-0.155c0.52-0.627,1.156-1.092,1.932-1.348  c0.262-0.087,0.397-0.253,0.41-0.521c0.011-0.217,0.021-0.434,0.016-0.651c-0.011-0.437-0.106-0.861-0.227-1.279  c-0.012-0.042-0.025-0.084-0.043-0.123c-0.098-0.21-0.327-0.309-0.544-0.239c-0.227,0.074-0.354,0.295-0.302,0.53  c0.011,0.049,0.027,0.098,0.04,0.146c0.092,0.328,0.156,0.662,0.175,1.003c0.006,0.113,0.028,0.23-0.023,0.344  c-0.094,0.041-0.187,0.079-0.279,0.121c-0.092,0.043-0.182,0.088-0.272,0.136s-0.177,0.099-0.263,0.152  c-0.093,0.057-0.184,0.115-0.273,0.177c-0.083,0.058-0.164,0.119-0.243,0.182c-0.079,0.063-0.153,0.133-0.232,0.196  c-0.076,0.06-0.132,0.146-0.253,0.203c0.024-0.098,0.04-0.167,0.057-0.235c0.193-0.746,0.481-1.455,0.838-2.137  c0.135-0.257,0.251-0.521,0.331-0.801c0.113-0.395,0.148-0.795,0.081-1.203c-0.074-0.454-0.267-0.854-0.536-1.22  c-0.237-0.323-0.522-0.6-0.832-0.853c-0.377-0.308-0.787-0.566-1.206-0.812c-1.002-0.588-2.062-1.049-3.151-1.446  c-0.986-0.359-1.993-0.651-3.01-0.91c-0.21-0.054-0.421-0.109-0.634-0.146c-0.238-0.042-0.454,0.114-0.503,0.343  C54.478,10.792,54.607,11.018,54.834,11.093z" />
	<path d="M40.008,38.996c0.206,0.007,0.401-0.044,0.594-0.108c0.771-0.257,1.499-0.609,2.209-1.002  c0.241-0.133,0.49-0.247,0.749-0.341c0.395-0.144,0.801-0.246,1.212-0.332c0.432-0.091,0.868-0.158,1.307-0.204  c0.41-0.043,0.822-0.076,1.233-0.09c0.317-0.01,0.636,0.011,0.954,0.027c0.557,0.029,1.108,0.108,1.656,0.212  c0.241,0.046,0.484,0.083,0.727,0.119c0.122,0.018,0.245,0.024,0.366-0.012c0.116-0.035,0.155-0.111,0.089-0.212  c-0.062-0.096-0.137-0.187-0.22-0.266c-0.366-0.348-0.791-0.606-1.261-0.789c-0.502-0.195-1.023-0.307-1.559-0.356  c-0.115-0.011-0.233-0.019-0.342-0.053c-0.499-0.157-1.007-0.264-1.527-0.313c-0.419-0.039-0.839-0.04-1.257-0.001  c-0.498,0.045-0.986,0.148-1.463,0.302c-0.023,0.008-0.049,0.008-0.109,0.017c0.079-0.093,0.133-0.157,0.225-0.265  c-0.104,0.018-0.167,0.024-0.229,0.04c-0.515,0.132-0.966,0.383-1.35,0.75c-0.081,0.077-0.164,0.133-0.275,0.161  c-0.169,0.042-0.327,0.115-0.475,0.207c-0.234,0.146-0.415,0.34-0.506,0.604c-0.176,0.506-0.456,0.95-0.788,1.365  c-0.054,0.068-0.108,0.137-0.151,0.211C39.692,38.881,39.757,38.988,40.008,38.996z" />
	<path d="M66.53,36.244c-0.257-0.564-0.579-1.085-1.029-1.519c-0.383-0.369-0.828-0.632-1.347-0.754  c-0.509-0.119-1.02-0.099-1.529,0.003c-0.406,0.082-0.794,0.217-1.175,0.378c-0.079,0.034-0.163,0.064-0.247,0.076  c-0.884,0.124-1.745,0.337-2.586,0.636c-0.389,0.138-0.765,0.306-1.138,0.481c-0.009,0.004-0.025-0.006-0.042-0.011  c0.004-0.041,0.009-0.082,0.014-0.136c-0.024-0.005-0.032-0.009-0.037-0.007c-0.543,0.187-0.933,0.781-0.892,1.356  c0.011,0.154,0.087,0.259,0.232,0.307c0.061,0.02,0.127,0.03,0.191,0.033c0.212,0.012,0.418-0.024,0.622-0.075  c0.471-0.118,0.923-0.293,1.371-0.478c0.341-0.141,0.687-0.268,1.041-0.371c0.627-0.183,1.267-0.298,1.914-0.377  c0.41-0.051,0.822-0.065,1.234-0.008c0.444,0.061,0.858,0.198,1.227,0.459c0.065,0.046,0.132,0.089,0.2,0.13  c0.351,0.212,0.728,0.358,1.138,0.393c0.186,0.016,0.378,0.022,0.562-0.004C66.554,36.714,66.664,36.539,66.53,36.244z" />
	<path d="M52.393,15.21c0.239-0.392,0.537-0.736,0.868-1.052c0.047-0.045,0.097-0.087,0.139-0.137  c0.225-0.273,0.073-0.68-0.276-0.736c-0.154-0.025-0.283,0.029-0.396,0.134c-0.406,0.374-0.774,0.781-1.076,1.246  c-0.182,0.28-0.333,0.576-0.445,0.891c-0.243,0.685-0.258,1.373-0.033,2.065c0.092,0.282,0.202,0.557,0.334,0.824  c0.249,0.502,0.56,0.962,0.911,1.397c0.604,0.747,1.309,1.39,2.065,1.979c0.028,0.022,0.058,0.044,0.089,0.062  c0.201,0.118,0.442,0.072,0.584-0.11c0.141-0.181,0.128-0.43-0.037-0.592c-0.056-0.056-0.122-0.102-0.185-0.151  c-0.45-0.354-0.877-0.733-1.274-1.146c-0.452-0.47-0.504-0.557-0.686-1.179c-0.016-0.055-0.032-0.111-0.046-0.167  c-0.078-0.318-0.123-0.639-0.101-0.967c0.028-0.414,0.179-0.774,0.479-1.063c0.119-0.115,0.252-0.218,0.389-0.311  c0.228-0.155,0.48-0.267,0.742-0.354c0.117-0.039,0.235-0.071,0.353-0.106c0.091-0.027,0.176-0.066,0.241-0.139  c0.127-0.144,0.151-0.361,0.058-0.526c-0.099-0.174-0.299-0.264-0.501-0.212c-0.435,0.113-0.856,0.265-1.25,0.486  c-0.61,0.342-1.058,0.823-1.286,1.494c-0.013,0.039-0.032,0.076-0.049,0.114c-0.056-0.23-0.058-0.453-0.021-0.675  C52.048,15.894,52.192,15.541,52.393,15.21z" />
	<path d="M37.041,26.876c-0.285,0.524-0.641,0.998-1.074,1.411c-0.274,0.261-0.579,0.479-0.924,0.64  c-0.039,0.018-0.079,0.037-0.115,0.061c-0.192,0.126-0.259,0.368-0.16,0.573c0.098,0.203,0.331,0.301,0.548,0.228  c0.061-0.021,0.121-0.048,0.179-0.076c0.369-0.176,0.699-0.408,1.002-0.681c0.052-0.047,0.105-0.091,0.183-0.159  c0,0.074,0,0.115,0,0.155c-0.004,0.318-0.017,0.637-0.01,0.955c0.006,0.253,0.206,0.437,0.448,0.438  c0.237,0.001,0.434-0.19,0.45-0.44c0.004-0.058,0-0.116-0.001-0.174c-0.008-0.566,0.033-1.128,0.14-1.685  c0.136-0.709,0.376-1.38,0.737-2.007c0.166-0.289,0.346-0.571,0.573-0.816c0.255-0.276,0.165-0.652-0.158-0.785  c-0.08-0.033-0.152-0.083-0.228-0.126c-0.861-0.493-1.592-1.128-2.152-1.952c-0.02-0.03-0.042-0.059-0.065-0.087  c-0.179-0.218-0.627-0.219-0.761,0.148c-0.048,0.131-0.035,0.258,0.034,0.376c0.047,0.081,0.103,0.157,0.158,0.234  c0.406,0.561,0.886,1.05,1.435,1.472c0.049,0.037,0.113,0.062,0.139,0.147c-0.042,0.003-0.075,0.011-0.107,0.007  c-0.151-0.018-0.303-0.03-0.451-0.063c-0.183-0.041-0.361-0.102-0.543-0.15c-0.234-0.063-0.468,0.054-0.549,0.27  c-0.086,0.228,0.019,0.473,0.249,0.577c0.039,0.018,0.081,0.03,0.122,0.045c0.434,0.154,0.882,0.225,1.341,0.232  c0.054,0.001,0.113-0.015,0.159,0.023c-0.003,0.023-0.002,0.039-0.008,0.05C37.437,26.105,37.248,26.496,37.041,26.876z" />
	<path d="M34.317,25.515c0.168,0.023,0.43-0.097,0.482-0.351c0.01-0.05,0.02-0.099,0.028-0.149c0.122-0.751,0.22-1.504,0.242-2.265  c0.008-0.268,0.018-0.535,0.023-0.803c0.005-0.293,0.06-0.575,0.184-0.842c0.095-0.205,0.219-0.389,0.41-0.552  c0.055,0.053,0.098,0.092,0.138,0.133c0.131,0.135,0.261,0.271,0.393,0.405c0.708,0.718,1.452,1.393,2.27,1.985  c0.576,0.417,1.182,0.783,1.851,1.035c0.128,0.048,0.258,0.095,0.391,0.129c0.206,0.053,0.413-0.052,0.504-0.243  c0.11-0.233,0.018-0.496-0.218-0.602c-0.125-0.056-0.258-0.094-0.385-0.146c-0.641-0.26-1.224-0.622-1.778-1.033  c-0.647-0.48-1.245-1.016-1.814-1.585c-0.317-0.318-0.628-0.641-0.931-0.972c-0.161-0.176-0.423-0.229-0.645-0.08  c-0.543,0.363-0.932,0.841-1.128,1.467c-0.096,0.305-0.139,0.62-0.146,0.941c-0.007,0.347-0.02,0.694-0.035,1.042  c-0.025,0.594-0.11,1.181-0.203,1.768c-0.013,0.079-0.024,0.157-0.033,0.237C33.893,25.265,34.057,25.479,34.317,25.515z" />
	<path d="M49.055,40.89c0.121-0.045,0.191-0.163,0.175-0.292c-0.016-0.129-0.113-0.22-0.249-0.226c-0.043-0.002-0.087,0-0.13,0.008  c-0.192,0.037-0.386,0.063-0.573,0.117c-0.423,0.123-0.842,0.261-1.262,0.393c-0.067,0.021-0.134,0.04-0.217,0.065  c0.317-0.549,0.369-0.905,0.08-1.563c0.04,0.003,0.076,0,0.109,0.009c0.188,0.051,0.376,0.104,0.564,0.157  c0.049,0.014,0.096,0.033,0.146,0.041c0.127,0.019,0.25-0.056,0.294-0.174c0.043-0.117-0.004-0.255-0.113-0.322  c-0.037-0.022-0.078-0.039-0.119-0.052c-0.63-0.204-1.27-0.339-1.937-0.326c-0.656,0.013-1.249,0.195-1.781,0.589  c-0.39,0.288-0.797,0.552-1.196,0.826c-0.201,0.138-0.425,0.215-0.666,0.242c-0.029,0.003-0.058,0.004-0.086,0.011  c-0.122,0.033-0.212,0.155-0.203,0.275c0.009,0.129,0.101,0.229,0.233,0.247c0.042,0.006,0.087,0.006,0.13,0  c0.1-0.015,0.2-0.031,0.298-0.054c0.075-0.018,0.139-0.011,0.207,0.029c0.131,0.076,0.266,0.147,0.401,0.215  c0.544,0.275,1.108,0.495,1.711,0.605c0.639,0.117,1.265,0.086,1.879-0.143c0.345-0.129,0.695-0.247,1.045-0.361  c0.392-0.128,0.786-0.25,1.197-0.301C49.013,40.902,49.035,40.897,49.055,40.89z M43.27,40.524c0.409-0.285,0.814-0.568,1.216-0.847  c0.055,0.035,0.029,0.071,0.027,0.103c-0.009,0.144-0.029,0.287-0.025,0.43c0.009,0.292,0.124,0.545,0.316,0.763  c0.047,0.053,0.097,0.104,0.15,0.161C44.637,41.156,43.607,40.782,43.27,40.524z" />
	<path d="M59.784,40.705c0.385,0.108,0.776,0.179,1.175,0.188c0.766,0.017,1.472-0.186,2.117-0.601  c0.343-0.22,0.651-0.481,0.931-0.777c0.049-0.052,0.1-0.101,0.154-0.156c0.087,0.046,0.16,0.091,0.238,0.126  c0.13,0.059,0.263,0.014,0.338-0.107c0.068-0.109,0.049-0.242-0.051-0.334c-0.026-0.024-0.057-0.044-0.088-0.063  c-0.521-0.315-1.059-0.595-1.634-0.799c-0.5-0.177-1.014-0.298-1.547-0.306c-0.719-0.01-1.407,0.145-2.062,0.439  c-0.192,0.086-0.372,0.195-0.537,0.326c-0.045,0.036-0.091,0.072-0.13,0.115c-0.099,0.111-0.099,0.247-0.006,0.354  c0.093,0.107,0.23,0.128,0.351,0.051c0.043-0.027,0.078-0.065,0.121-0.091c0.142-0.087,0.284-0.171,0.428-0.254  c0.027-0.016,0.061-0.019,0.092-0.029c-0.016,0.178-0.039,0.342-0.042,0.506c-0.003,0.167,0.028,0.335,0.112,0.481  c0.082,0.143,0.182,0.275,0.284,0.427c-0.086-0.023-0.162-0.042-0.237-0.064c-0.326-0.097-0.657-0.178-0.995-0.212  c-0.186-0.019-0.376-0.023-0.563-0.017c-0.142,0.005-0.238,0.122-0.239,0.26c-0.001,0.137,0.094,0.247,0.235,0.266  c0.05,0.007,0.101,0.003,0.152,0.009c0.216,0.022,0.434,0.031,0.646,0.071C59.282,40.565,59.534,40.635,59.784,40.705z   M61.757,40.143c0.367-0.368,0.456-0.806,0.321-1.297c-0.023-0.082-0.069-0.158-0.105-0.237c-0.018-0.038-0.038-0.075-0.069-0.135  c0.625,0.1,1.187,0.313,1.761,0.606c-0.565,0.607-1.197,1.036-2.01,1.199C61.662,40.199,61.721,40.178,61.757,40.143z" />
	<path d="M56.688,20.93c-0.57-0.74-1.055-1.522-1.308-2.431c-0.013-0.048-0.034-0.096-0.061-0.138  c-0.115-0.184-0.349-0.255-0.553-0.171c-0.193,0.079-0.316,0.289-0.264,0.493c0.057,0.224,0.126,0.446,0.209,0.661  c0.349,0.902,0.885,1.689,1.505,2.422c0.072,0.085,0.163,0.141,0.265,0.183c0.546,0.226,1.095,0.247,1.65,0.035  c0.074-0.028,0.15-0.056,0.218-0.096c0.215-0.127,0.286-0.383,0.17-0.603c-0.03-0.058-0.068-0.111-0.102-0.167  c-0.371-0.61-0.552-1.27-0.514-1.986c0.006-0.108,0.014-0.217,0.021-0.325c0.017-0.285-0.015-0.565-0.119-0.832  c-0.063-0.161-0.137-0.32-0.224-0.469c-0.232-0.399-0.55-0.725-0.894-1.028c-0.123-0.108-0.266-0.146-0.424-0.101  c-0.321,0.091-0.436,0.48-0.216,0.731c0.047,0.054,0.105,0.099,0.159,0.148c0.258,0.236,0.485,0.497,0.645,0.812  c0.123,0.243,0.194,0.501,0.168,0.775c-0.075,0.773,0.039,1.515,0.356,2.225c0.02,0.045,0.033,0.093,0.054,0.155  c-0.065,0-0.116,0.003-0.165-0.001C57.031,21.203,56.842,21.13,56.688,20.93z" />
	<path d="M44.143,15.449c0.099-0.022,0.2-0.032,0.298-0.057c0.24-0.062,0.388-0.296,0.341-0.529  c-0.048-0.236-0.273-0.399-0.516-0.358c-0.429,0.072-0.849,0.175-1.25,0.349c-0.2,0.086-0.39,0.19-0.564,0.322  c-0.218,0.165-0.391,0.365-0.494,0.62c-0.112,0.276-0.032,0.51,0.232,0.635c0.574,0.275,1.18,0.429,1.818,0.451  c0.437,0.015,0.866-0.036,1.291-0.134c0.765-0.177,1.403-0.567,1.913-1.162c0.506-0.591,0.85-1.272,1.107-2.001  c0.085-0.241-0.03-0.477-0.257-0.569c-0.253-0.103-0.521,0.058-0.584,0.264c-0.021,0.069-0.05,0.136-0.077,0.203  c-0.203,0.514-0.455,1-0.812,1.427c-0.361,0.432-0.803,0.753-1.344,0.915c-0.643,0.193-1.296,0.206-1.951,0.049  c-0.04-0.009-0.076-0.031-0.122-0.05c0.062-0.074,0.139-0.098,0.21-0.131C43.624,15.577,43.882,15.506,44.143,15.449z" />
	<path d="M65.888,22.353c-0.048,0.011-0.098,0.028-0.138,0.057c-0.105,0.075-0.135,0.185-0.114,0.308  c0.022,0.126,0.102,0.207,0.222,0.242c0.076,0.022,0.156,0.03,0.234,0.048c0.517,0.126,0.875,0.431,1.054,0.937  c0.029,0.082,0.048,0.167,0.07,0.25c0.094,0.357,0.179,0.716,0.283,1.07c0.305,1.042,0.669,2.064,1.061,3.077  c0.293,0.757,0.445,1.542,0.51,2.346c0.04,0.497,0.047,0.997,0.065,1.425c-0.022,0.528-0.041,0.984-0.06,1.439  c-0.002,0.058-0.007,0.116-0.001,0.173c0.024,0.219,0.268,0.34,0.458,0.229c0.101-0.059,0.157-0.145,0.162-0.265  c0.015-0.34,0.034-0.68,0.048-1.019c0.037-0.862,0.005-1.723-0.103-2.579c-0.078-0.619-0.21-1.226-0.435-1.811  c-0.124-0.324-0.245-0.65-0.364-0.976c-0.398-1.102-0.787-2.208-1.037-3.356c-0.051-0.234-0.142-0.456-0.269-0.661  c-0.35-0.565-0.881-0.837-1.519-0.934C65.975,22.346,65.929,22.344,65.888,22.353z" />
	<path d="M50.119,18.745c-0.07-0.297-0.102-0.598-0.105-0.903c-0.001-0.078-0.005-0.162-0.03-0.234  c-0.065-0.181-0.261-0.299-0.444-0.283c-0.214,0.019-0.385,0.171-0.412,0.381c-0.018,0.143-0.018,0.288-0.025,0.399  c0.018,0.2,0.027,0.366,0.05,0.531c0.1,0.716,0.375,1.362,0.792,1.95c0.282,0.397,0.612,0.75,0.976,1.072  c0.627,0.554,1.332,0.993,2.069,1.382c0.032,0.017,0.064,0.034,0.099,0.045c0.232,0.078,0.461-0.02,0.563-0.238  c0.097-0.207,0.027-0.439-0.173-0.568c-0.055-0.035-0.114-0.063-0.171-0.094c-0.454-0.241-0.89-0.511-1.301-0.82  c-0.4-0.301-0.768-0.637-1.083-1.028C50.542,19.865,50.258,19.341,50.119,18.745z" />
	<path d="M38.681,33.739c0.354-0.281,0.744-0.497,1.165-0.661c0.067-0.026,0.137-0.05,0.198-0.086  c0.13-0.077,0.182-0.238,0.129-0.379c-0.051-0.137-0.2-0.223-0.349-0.195c-0.049,0.009-0.097,0.028-0.144,0.046  c-0.367,0.136-0.715,0.311-1.045,0.522c-0.755,0.484-1.306,1.135-1.616,1.981c-0.199,0.543-0.28,1.105-0.287,1.683  c0.027,0.353,0.044,0.707,0.083,1.059c0.058,0.524,0.128,1.048,0.199,1.571c0.079,0.58,0.189,1.155,0.315,1.727  c0.014,0.063,0.027,0.128,0.049,0.189c0.057,0.155,0.201,0.231,0.365,0.199c0.148-0.029,0.247-0.154,0.24-0.315  c-0.003-0.064-0.02-0.128-0.034-0.192c-0.036-0.17-0.077-0.338-0.11-0.509c-0.21-1.08-0.354-2.168-0.448-3.264  c-0.037-0.436-0.021-0.867,0.058-1.296C37.605,34.975,38.005,34.276,38.681,33.739z" />
	<path d="M58.625,20.116c0.097,0.547,0.298,1.057,0.559,1.545c0.02,0.038,0.043,0.076,0.069,0.11  c0.127,0.165,0.339,0.222,0.524,0.143c0.198-0.084,0.31-0.282,0.271-0.492c-0.012-0.063-0.04-0.123-0.067-0.182  c-0.072-0.158-0.155-0.311-0.221-0.471c-0.227-0.551-0.338-1.12-0.262-1.719c0.014-0.107,0.012-0.217,0.017-0.325  c0.003,0,0.006-0.001,0.009-0.001c-0.021-0.223-0.029-0.449-0.066-0.669c-0.173-1.011-0.711-1.787-1.545-2.369  c-0.041-0.029-0.084-0.057-0.13-0.079c-0.206-0.1-0.452-0.031-0.574,0.159c-0.126,0.196-0.092,0.437,0.087,0.588  c0.049,0.042,0.107,0.074,0.16,0.112c0.554,0.402,0.929,0.926,1.084,1.598c0.081,0.35,0.088,0.705,0.048,1.058  C58.551,19.457,58.567,19.787,58.625,20.116z" />
	<path d="M60.709,16.083c-0.455-0.646-1.047-1.135-1.745-1.499c-0.705-0.368-1.456-0.598-2.235-0.742  c-0.113-0.021-0.228-0.038-0.343-0.047c-0.216-0.017-0.415,0.178-0.436,0.373c-0.026,0.238,0.095,0.436,0.318,0.502  c0.042,0.012,0.084,0.02,0.127,0.029c0.226,0.047,0.455,0.087,0.679,0.142c0.535,0.132,1.05,0.32,1.535,0.587  c0.56,0.309,1.036,0.711,1.406,1.236c0.025,0.036,0.049,0.072,0.077,0.105c0.127,0.143,0.324,0.19,0.494,0.122  c0.183-0.073,0.287-0.224,0.29-0.466c-0.01-0.031-0.028-0.108-0.06-0.179C60.789,16.188,60.747,16.136,60.709,16.083z" />
	<path d="M57.91,54.954c0.163,0.03,0.327,0.053,0.49,0.079c0.119-0.018,0.235-0.027,0.346-0.056c0.207-0.054,0.364-0.176,0.443-0.38  c0.02-0.053,0.035-0.112,0.034-0.168c-0.004-0.167-0.168-0.278-0.322-0.215c-0.05,0.02-0.101,0.063-0.128,0.109  c-0.085,0.141-0.212,0.185-0.366,0.188c-0.183,0.005-0.36-0.025-0.536-0.071c-0.454-0.118-0.912-0.143-1.376-0.076  c-0.273,0.039-0.536,0.115-0.797,0.203c-0.592,0.201-1.186,0.229-1.789,0.039c-0.325-0.103-0.662-0.144-1.005-0.148  c-0.437-0.006-0.864,0.059-1.289,0.152c-0.213,0.047-0.427,0.078-0.645,0.064c-0.259-0.017-0.499-0.081-0.683-0.283  c-0.024-0.026-0.051-0.051-0.081-0.071c-0.088-0.057-0.206-0.049-0.283,0.015c-0.09,0.076-0.119,0.19-0.069,0.293  c0.022,0.045,0.053,0.087,0.085,0.125c0.117,0.142,0.265,0.243,0.436,0.312c0.24,0.097,0.491,0.12,0.745,0.107  c0.217-0.011,0.431-0.039,0.644-0.088c0.289-0.067,0.582-0.112,0.879-0.126c0.393-0.018,0.78,0.014,1.158,0.131  c0.463,0.144,0.933,0.19,1.414,0.108c0.25-0.042,0.494-0.108,0.733-0.192c0.472-0.166,0.957-0.222,1.452-0.154  C57.571,54.876,57.739,54.923,57.91,54.954z" />
	<path d="M50.144,39.523c0.039-0.011,0.075-0.017,0.106-0.032c0.078-0.039,0.117-0.106,0.117-0.193c0-0.095-0.043-0.172-0.133-0.205  c-0.088-0.032-0.181-0.048-0.272-0.072c-0.456-0.12-0.888-0.302-1.313-0.504c-0.704-0.334-1.438-0.562-2.22-0.623  c-0.908-0.07-1.77,0.097-2.594,0.474c-0.396,0.181-0.765,0.407-1.12,0.659c-0.368,0.261-0.768,0.46-1.206,0.578  c-0.028,0.007-0.056,0.015-0.082,0.027c-0.112,0.048-0.171,0.155-0.145,0.26c0.03,0.116,0.141,0.191,0.265,0.169  c0.064-0.011,0.126-0.032,0.188-0.051c0.461-0.141,0.883-0.359,1.274-0.638c0.337-0.24,0.69-0.45,1.068-0.618  c0.919-0.407,1.873-0.519,2.862-0.336c0.566,0.105,1.1,0.299,1.616,0.551c0.456,0.223,0.926,0.407,1.422,0.518  C50.033,39.5,50.089,39.512,50.144,39.523z" />
	<path d="M35.794,34.876c0.173,0.006,0.305-0.099,0.332-0.276c0.014-0.093,0.012-0.188,0.019-0.281  c0.037-0.485,0.125-0.96,0.303-1.415c0.144-0.369,0.351-0.699,0.648-0.963c0.178-0.158,0.363-0.311,0.556-0.45  c0.481-0.349,1.001-0.634,1.534-0.895c0.065-0.032,0.133-0.06,0.19-0.103c0.194-0.143,0.162-0.431-0.054-0.536  c-0.11-0.053-0.209-0.027-0.31,0.023c-0.537,0.268-1.07,0.544-1.565,0.886c-0.208,0.143-0.411,0.295-0.608,0.454  c-0.467,0.377-0.793,0.856-1.004,1.416c-0.209,0.554-0.295,1.131-0.336,1.753c0,0.001-0.002,0.038,0,0.074  C35.508,34.741,35.629,34.87,35.794,34.876z" />
	<path d="M64.573,38.125c-0.355-0.224-0.723-0.425-1.108-0.593c-0.512-0.223-1.04-0.393-1.598-0.462  c-0.639-0.08-1.269-0.047-1.89,0.136c-0.625,0.185-1.184,0.495-1.702,0.886c-0.242,0.182-0.498,0.347-0.748,0.52  c-0.03,0.021-0.063,0.036-0.091,0.059c-0.095,0.076-0.118,0.192-0.059,0.29c0.061,0.1,0.171,0.138,0.281,0.092  c0.053-0.022,0.105-0.05,0.152-0.083c0.233-0.159,0.464-0.32,0.696-0.48c0.166-0.115,0.327-0.24,0.5-0.345  c0.714-0.437,1.486-0.667,2.328-0.648c0.496,0.011,0.976,0.101,1.446,0.259c0.53,0.179,1.026,0.43,1.502,0.721  c0.062,0.038,0.123,0.08,0.189,0.104c0.134,0.05,0.287-0.065,0.288-0.241c-0.017-0.03-0.043-0.09-0.081-0.139  C64.653,38.168,64.61,38.149,64.573,38.125z" />
	<path d="M61.329,18.465c0.003-0.079-0.007-0.16-0.025-0.237c-0.043-0.179-0.163-0.286-0.339-0.328  c-0.17-0.04-0.314,0.013-0.43,0.142c-0.088,0.097-0.119,0.212-0.111,0.341c0.017,0.276-0.015,0.549-0.047,0.822  c-0.03,0.251-0.047,0.504-0.065,0.705c0.011,0.196,0.018,0.341,0.028,0.485c0.03,0.45,0.124,0.887,0.263,1.315  c0.013,0.041,0.028,0.083,0.048,0.121c0.096,0.183,0.29,0.271,0.493,0.225c0.198-0.044,0.347-0.215,0.35-0.416  c0.001-0.07-0.017-0.144-0.039-0.212c-0.234-0.737-0.294-1.484-0.169-2.25C61.324,18.945,61.32,18.704,61.329,18.465z" />
	<path d="M48.786,42.446c0.033-0.015,0.067-0.029,0.096-0.049c0.093-0.063,0.127-0.167,0.088-0.265  c-0.043-0.109-0.145-0.164-0.263-0.136c-0.049,0.012-0.094,0.036-0.141,0.056c-0.239,0.103-0.476,0.211-0.716,0.309  c-0.811,0.33-1.635,0.62-2.509,0.737c-0.425,0.057-0.849,0.069-1.273-0.017c-0.37-0.075-0.73-0.177-1.067-0.349  c-0.353-0.181-0.657-0.42-0.891-0.743c-0.021-0.029-0.041-0.06-0.066-0.086c-0.084-0.085-0.201-0.094-0.295-0.025  c-0.084,0.062-0.115,0.174-0.068,0.271c0.028,0.058,0.068,0.111,0.107,0.163c0.259,0.35,0.59,0.615,0.977,0.809  c0.624,0.312,1.288,0.462,1.951,0.483c0.142-0.007,0.251-0.009,0.359-0.019c0.527-0.048,1.043-0.155,1.55-0.306  C47.367,43.058,48.082,42.766,48.786,42.446z" />
	<path d="M65.074,40.96c0.008-0.028,0.014-0.056,0.018-0.085c0.016-0.132-0.051-0.236-0.169-0.264  c-0.106-0.025-0.21,0.033-0.257,0.149c-0.027,0.067-0.042,0.138-0.067,0.206c-0.171,0.463-0.473,0.807-0.925,1.012  c-0.211,0.096-0.432,0.165-0.664,0.193c-0.694,0.086-1.385,0.061-2.073-0.068c-0.614-0.115-1.202-0.311-1.769-0.571  c-0.059-0.027-0.118-0.056-0.18-0.074c-0.106-0.03-0.204,0.018-0.253,0.116c-0.047,0.094-0.024,0.207,0.061,0.272  c0.034,0.026,0.074,0.044,0.114,0.062c0.112,0.051,0.223,0.102,0.336,0.15c0.936,0.396,1.911,0.608,3.024,0.619  c0.115-0.007,0.324-0.016,0.533-0.032c0.363-0.028,0.714-0.107,1.049-0.251C64.496,42.117,64.879,41.618,65.074,40.96z" />
	<path d="M56.909,43.825c-0.155-0.722-0.253-1.454-0.31-2.191c-0.006-0.072-0.012-0.145-0.027-0.215  c-0.025-0.121-0.114-0.186-0.234-0.179c-0.106,0.006-0.192,0.082-0.202,0.191c-0.006,0.071-0.001,0.145,0.006,0.217  c0.021,0.216,0.045,0.432,0.069,0.648c0.076,0.677,0.186,1.347,0.341,2.01c0.089,0.38,0.194,0.757,0.289,1.135  c0.108,0.429,0.138,0.857-0.037,1.279c-0.008,0.02-0.015,0.041-0.019,0.062c-0.019,0.108,0.036,0.211,0.131,0.247  c0.1,0.038,0.212,0.008,0.269-0.08c0.031-0.048,0.054-0.102,0.074-0.156c0.084-0.226,0.128-0.459,0.128-0.775  c-0.003-0.232-0.066-0.528-0.141-0.824C57.129,44.74,57.008,44.285,56.909,43.825z" />
	<path d="M51.204,46.383c0.04-0.051,0.082-0.102,0.111-0.159c0.043-0.087,0.013-0.197-0.059-0.255  c-0.076-0.061-0.186-0.071-0.263-0.017c-0.035,0.024-0.065,0.058-0.092,0.09c-0.385,0.453-0.579,0.977-0.587,1.6  c0.006,0.239,0.04,0.504,0.111,0.763c0.176,0.635,0.595,1.041,1.198,1.275c0.027,0.01,0.055,0.02,0.083,0.025  c0.102,0.021,0.211-0.036,0.248-0.129c0.043-0.106,0.005-0.226-0.095-0.281c-0.063-0.034-0.133-0.057-0.198-0.087  c-0.342-0.158-0.601-0.4-0.741-0.754c-0.159-0.4-0.189-0.814-0.109-1.236C50.87,46.907,51.008,46.631,51.204,46.383z" />
	<path d="M56.482,55.749c-0.042,0.012-0.08,0.032-0.121,0.047c-0.156,0.057-0.31,0.12-0.469,0.168  c-0.661,0.2-1.331,0.248-2.013,0.115c-0.349-0.068-0.687-0.169-1.014-0.306c-0.06-0.025-0.12-0.054-0.183-0.065  c-0.149-0.027-0.27,0.093-0.255,0.244c0.011,0.108,0.083,0.162,0.174,0.201c0.651,0.276,1.324,0.455,2.012,0.45  c0.686,0.006,1.316-0.134,1.922-0.391c0.046-0.02,0.094-0.038,0.136-0.066c0.089-0.06,0.118-0.172,0.077-0.268  C56.7,55.769,56.596,55.717,56.482,55.749z" />
	<path d="M53.813,49.203c0.177,0.099,0.36,0.18,0.559,0.228c0.228,0.055,0.445,0.036,0.651-0.075c0.241-0.13,0.482-0.261,0.718-0.401  c0.164-0.097,0.327-0.185,0.523-0.187c0.021,0,0.044-0.003,0.064-0.008c0.102-0.028,0.178-0.123,0.177-0.221  c-0.001-0.109-0.086-0.2-0.204-0.215c-0.05-0.006-0.101-0.005-0.151-0.002c-0.224,0.012-0.415,0.109-0.602,0.223  c-0.209,0.128-0.425,0.246-0.638,0.367c-0.189,0.108-0.387,0.108-0.585,0.032c-0.114-0.044-0.224-0.1-0.33-0.16  c-0.201-0.114-0.405-0.222-0.623-0.302c-0.163-0.059-0.33-0.107-0.506-0.109c-0.029,0-0.058-0.002-0.087,0  c-0.111,0.011-0.189,0.085-0.203,0.191c-0.014,0.105,0.064,0.216,0.172,0.244c0.021,0.005,0.043,0.005,0.065,0.007  c0.226,0.02,0.437,0.092,0.64,0.191C53.574,49.067,53.693,49.136,53.813,49.203z" />
	<path d="M52.329,44.311c-0.055,0.321-0.155,0.63-0.291,0.928c-0.148,0.324-0.197,0.661-0.128,1.015  c0.085,0.438,0.298,0.81,0.573,1.152c0.018,0.022,0.039,0.043,0.062,0.06c0.08,0.061,0.18,0.06,0.261,0  c0.088-0.065,0.119-0.172,0.071-0.269c-0.025-0.051-0.066-0.094-0.096-0.143c-0.094-0.154-0.198-0.303-0.278-0.464  c-0.111-0.222-0.163-0.462-0.154-0.713c0.007-0.199,0.069-0.382,0.146-0.563c0.188-0.443,0.301-0.904,0.333-1.337  c0-0.112,0.007-0.178-0.001-0.242c-0.015-0.119-0.106-0.191-0.226-0.187c-0.127,0.004-0.199,0.08-0.214,0.225  C52.368,43.952,52.36,44.134,52.329,44.311z" />
	<path d="M39.116,31.235c-0.585,0.273-1.134,0.606-1.657,0.983c-0.029,0.021-0.059,0.042-0.085,0.067  c-0.117,0.117-0.125,0.282-0.022,0.413c0.097,0.123,0.248,0.156,0.388,0.081c0.044-0.024,0.085-0.055,0.126-0.084  c0.484-0.345,0.991-0.649,1.532-0.896c0.039-0.018,0.08-0.035,0.115-0.06c0.09-0.062,0.126-0.154,0.134-0.252  c-0.005-0.216-0.207-0.362-0.412-0.304C39.194,31.195,39.156,31.217,39.116,31.235z" />
	<path d="M52.961,53.472c0.048,0.013,0.1,0.017,0.149,0.012c0.275-0.026,0.546-0.074,0.795-0.198c0.155-0.078,0.308-0.073,0.46-0.006  c0.112,0.05,0.222,0.107,0.322,0.177c0.265,0.185,0.254,0.186,0.524-0.013c0.146-0.107,0.302-0.199,0.476-0.256  c0.142-0.046,0.282-0.051,0.424,0.002c0.163,0.06,0.328,0.114,0.492,0.168c0.048,0.016,0.097,0.031,0.147,0.036  c0.083,0.008,0.154-0.047,0.179-0.129c0.021-0.068-0.007-0.148-0.071-0.188c-0.03-0.019-0.064-0.033-0.098-0.045  c-0.205-0.071-0.41-0.142-0.615-0.211c-0.133-0.045-0.266-0.053-0.406-0.025c-0.21,0.042-0.394,0.139-0.575,0.247  c-0.074,0.044-0.146,0.093-0.223,0.142c-0.065-0.04-0.126-0.078-0.188-0.114c-0.131-0.077-0.265-0.147-0.414-0.187  c-0.182-0.049-0.356-0.044-0.526,0.046c-0.221,0.117-0.458,0.174-0.707,0.192c-0.05,0.004-0.101,0.011-0.149,0.025  c-0.071,0.022-0.123,0.096-0.122,0.162C52.839,53.378,52.891,53.453,52.961,53.472z" />
	<path d="M58.133,48.288c-0.031,0.101,0.016,0.212,0.106,0.26c0.091,0.048,0.209,0.028,0.275-0.054  c0.036-0.044,0.065-0.096,0.09-0.147c0.147-0.304,0.225-0.625,0.226-0.963c0.001-0.377-0.089-0.712-0.287-1.054  c-0.179-0.31-0.415-0.573-0.683-0.809c-0.027-0.024-0.056-0.046-0.088-0.062c-0.1-0.053-0.205-0.031-0.273,0.053  c-0.068,0.083-0.071,0.195-0.002,0.279c0.036,0.044,0.083,0.081,0.125,0.12c0.209,0.193,0.393,0.405,0.528,0.656  c0.283,0.528,0.291,1.063,0.036,1.604C58.17,48.21,58.146,48.247,58.133,48.288z" />
	<path d="M62.947,54.916c-0.012,0.103,0.043,0.182,0.142,0.214c0.083,0.027,0.175-0.006,0.224-0.085  c0.026-0.042,0.045-0.09,0.061-0.138c0.071-0.213,0.114-0.432,0.107-0.655c0.005-0.229-0.042-0.446-0.114-0.659  c-0.014-0.041-0.03-0.082-0.051-0.119c-0.05-0.087-0.15-0.123-0.242-0.091c-0.088,0.03-0.141,0.124-0.125,0.227  c0.006,0.035,0.02,0.069,0.033,0.103c0.129,0.36,0.126,0.72,0,1.08C62.968,54.833,62.952,54.874,62.947,54.916z" />
	<path d="M56.453,38.829c-0.091-0.029-0.193,0.004-0.247,0.088c-0.031,0.048-0.053,0.103-0.073,0.157  c-0.099,0.267-0.15,0.543-0.142,0.828c0,0.087,0,0.174,0,0.26c0,0.022,0.002,0.044,0.006,0.065c0.022,0.114,0.12,0.197,0.227,0.193  c0.108-0.004,0.202-0.096,0.211-0.21c0.003-0.043,0-0.087-0.002-0.13c-0.017-0.315,0.024-0.62,0.145-0.914  c0.013-0.033,0.025-0.068,0.029-0.104C56.619,38.959,56.551,38.86,56.453,38.829z" />
	<path d="M46.013,54.114c0.004-0.111-0.08-0.191-0.191-0.191c-0.109,0-0.171,0.06-0.208,0.158c-0.082,0.219-0.131,0.443-0.134,0.678  c0.007,0.094,0.008,0.188,0.024,0.281c0.018,0.107,0.046,0.212,0.074,0.316c0.013,0.049,0.031,0.097,0.053,0.142  c0.053,0.105,0.153,0.147,0.251,0.11c0.104-0.039,0.15-0.125,0.127-0.244c-0.007-0.035-0.022-0.069-0.033-0.103  c-0.109-0.327-0.109-0.653-0.001-0.98C45.993,54.227,46.011,54.17,46.013,54.114z" />
	<path d="M40.548,41.354c-0.082,0.036-0.117,0.103-0.094,0.171c0.023,0.067,0.087,0.098,0.178,0.082  c0.028-0.005,0.056-0.012,0.083-0.022c0.178-0.062,0.352-0.133,0.505-0.243c0.093-0.067,0.183-0.141,0.263-0.224  c0.059-0.061,0.101-0.139,0.148-0.212c0.035-0.054,0.031-0.11-0.011-0.16c-0.04-0.047-0.089-0.059-0.156-0.034  c-0.027,0.01-0.053,0.022-0.079,0.034c-0.32,0.149-0.653,0.229-1.008,0.182c-0.007-0.001-0.014-0.002-0.021-0.002  c-0.09-0.003-0.15,0.036-0.165,0.106c-0.016,0.076,0.036,0.143,0.137,0.161c0.071,0.013,0.143,0.015,0.215,0.017  c0.085,0.003,0.17,0.001,0.255,0.001c0.002,0.013,0.003,0.026,0.005,0.039c-0.038,0.018-0.075,0.037-0.114,0.053  C40.643,41.321,40.594,41.334,40.548,41.354z" />
	<path d="M66.218,39.135c-0.065,0.046-0.123,0.102-0.187,0.148c-0.205,0.148-0.431,0.198-0.678,0.13  c-0.014-0.004-0.027-0.011-0.041-0.015c-0.014-0.004-0.028-0.006-0.043-0.007c-0.059-0.005-0.114,0.03-0.136,0.087  c-0.021,0.053-0.002,0.122,0.05,0.152c0.122,0.069,0.256,0.095,0.357,0.098c0.307-0.001,0.697-0.191,0.856-0.398  c0.044-0.057,0.043-0.131-0.001-0.178C66.352,39.104,66.277,39.093,66.218,39.135z" />
	<path d="M57.265,86.424c-0.295-0.142-0.61-0.082-0.83,0.16c-0.119,0.131-0.204,0.283-0.246,0.453  c-0.099,0.401-0.058,0.79,0.141,1.155c0.095,0.173,0.222,0.321,0.394,0.424c0.301,0.178,0.653,0.127,0.885-0.133  c0.057-0.064,0.107-0.137,0.148-0.212c0.109-0.201,0.156-0.418,0.154-0.647c-0.006-0.334-0.097-0.641-0.303-0.909  C57.516,86.593,57.404,86.492,57.265,86.424z" />
	<path d="M55.964,68.748c0.159,0.015,0.308-0.102,0.339-0.269c0.007-0.035,0.005-0.072,0.013-0.107  c0.026-0.113,0.086-0.197,0.2-0.237c0.034-0.012,0.068-0.023,0.102-0.036c0.283-0.104,0.469-0.301,0.565-0.586  c0.063-0.187,0.085-0.38,0.093-0.577c-0.02-0.164-0.029-0.331-0.062-0.493c-0.031-0.15-0.169-0.232-0.329-0.219  c-0.154,0.013-0.27,0.125-0.278,0.28c-0.004,0.079,0.012,0.158,0.012,0.238c-0.001,0.13,0.005,0.261-0.015,0.388  c-0.03,0.196-0.125,0.353-0.329,0.418c-0.027,0.009-0.053,0.023-0.079,0.035c-0.41,0.189-0.517,0.569-0.511,0.859  C55.689,68.606,55.81,68.734,55.964,68.748z" />
	<path d="M36.85,47.396c-0.18-0.228-0.343-0.466-0.467-0.73c-0.229-0.487-0.301-0.992-0.189-1.523  c0.043-0.205,0.074-0.413,0.094-0.622c0.062-0.652-0.084-1.252-0.479-1.781c-0.388-0.521-0.695-1.082-0.876-1.71  c-0.091-0.317-0.254-0.599-0.455-0.858C34.26,39.89,34,39.65,33.717,39.434c-0.029-0.022-0.058-0.044-0.09-0.06  c-0.114-0.055-0.226-0.049-0.329,0.024c-0.104,0.074-0.138,0.18-0.121,0.306c0.013,0.092,0.066,0.156,0.136,0.214  c0.134,0.11,0.27,0.219,0.395,0.34c0.323,0.313,0.566,0.676,0.675,1.119c0.014,0.056,0.035,0.11,0.054,0.165  c0.191,0.553,0.478,1.053,0.828,1.519c0.271,0.36,0.397,0.767,0.404,1.214c0.004,0.277-0.043,0.548-0.104,0.816  c-0.042,0.184-0.071,0.37-0.066,0.559c-0.005,0.248,0.035,0.491,0.101,0.729c0.159,0.568,0.461,1.058,0.84,1.505  c0.014,0.017,0.029,0.033,0.045,0.047c0.126,0.113,0.287,0.118,0.414,0.012c0.125-0.104,0.151-0.27,0.06-0.41  C36.927,47.484,36.886,47.442,36.85,47.396z" />
	<path d="M34.797,44.881c-0.111-0.204-0.186-0.422-0.253-0.643c-0.017-0.055-0.028-0.114-0.055-0.163  c-0.059-0.109-0.152-0.173-0.28-0.169c-0.126,0.004-0.219,0.064-0.276,0.177c-0.037,0.074-0.044,0.148-0.021,0.23  c0.09,0.328,0.201,0.648,0.367,0.946c0.092,0.165,0.196,0.321,0.338,0.447c0.075,0.066,0.156,0.131,0.246,0.174  c0.209,0.1,0.447-0.05,0.451-0.29c-0.004-0.102-0.055-0.192-0.15-0.259C35.001,45.214,34.891,45.054,34.797,44.881z" />
	<path d="M69.157,43.176c-0.12,0.1-0.142,0.296-0.028,0.43c0.111,0.13,0.279,0.155,0.427,0.047c0.098-0.072,0.189-0.158,0.27-0.249  c0.185-0.209,0.3-0.458,0.38-0.724c0.092-0.307,0.133-0.622,0.156-0.94c0-0.108,0.01-0.218-0.002-0.325  c-0.02-0.176-0.161-0.293-0.326-0.285c-0.157,0.008-0.28,0.126-0.299,0.291c-0.004,0.036-0.001,0.072-0.003,0.108  c-0.014,0.187-0.02,0.376-0.047,0.561C69.625,42.508,69.495,42.893,69.157,43.176z" />
	<path d="M69.004,40.084c0.025,0.149,0.053,0.299,0.099,0.443c0.055,0.176,0.226,0.254,0.399,0.2c0.142-0.045,0.229-0.201,0.2-0.363  c-0.009-0.05-0.021-0.099-0.032-0.148c-0.09-0.406-0.104-0.815-0.038-1.226c0.02-0.128,0.053-0.254,0.075-0.382  c0.027-0.158-0.073-0.312-0.22-0.351c-0.162-0.042-0.307,0.026-0.374,0.178c-0.014,0.033-0.023,0.068-0.033,0.103  c-0.083,0.316-0.113,0.639-0.123,0.966c0.003,0.07,0.005,0.142,0.011,0.214C68.977,39.84,68.983,39.964,69.004,40.084z" />
	<path d="M56.591,77.273c-0.208-0.003-0.399,0.055-0.576,0.162c-0.44,0.267-0.732,0.648-0.872,1.143  c-0.05,0.175-0.067,0.353-0.015,0.534c0.084,0.299,0.289,0.46,0.618,0.463c0.16,0.011,0.325-0.043,0.478-0.128  c0.48-0.264,0.795-0.661,0.941-1.188c0.049-0.175,0.064-0.354,0.011-0.535C57.092,77.435,56.894,77.278,56.591,77.273z" />
</svg>
